<?xml version="1.0" encoding="utf-8" standalone="no"?>
<!DOCTYPE svg PUBLIC "-//W3C//DTD SVG 1.1//EN"
  "http://www.w3.org/Graphics/SVG/1.1/DTD/svg11.dtd">
<!-- Created with matplotlib (http://matplotlib.org/) -->
<svg height="475.2pt" version="1.1" viewBox="0 0 720 475.2" width="720pt" xmlns="http://www.w3.org/2000/svg" xmlns:xlink="http://www.w3.org/1999/xlink">
 <defs>
  <style type="text/css">
*{stroke-linecap:butt;stroke-linejoin:round;}
  </style>
 </defs>
 <g id="figure_1">
  <g id="patch_1">
   <path d="M 0 475.2 
L 720 475.2 
L 720 0 
L 0 0 
z
" style="fill:#ffffff;"/>
  </g>
  <g id="axes_1">
   <g id="patch_2">
    <path d="M 90 422.928 
L 648 422.928 
L 648 57.024 
L 90 57.024 
z
" style="fill:#f5f5f5;"/>
   </g>
   <g id="matplotlib.axis_1">
    <g id="xtick_1">
     <g id="line2d_1">
      <path clip-path="url(#pcfc91ebeac)" d="M 99.905325 422.928 
L 99.905325 57.024 
" style="fill:none;stroke:#e6e6e6;stroke-dasharray:3.7,1.6;stroke-dashoffset:0;stroke-opacity:0.5;"/>
     </g>
     <g id="line2d_2">
      <defs>
       <path d="M 0 0 
L 0 3.5 
" id="m16f54d43d7" style="stroke:#737373;"/>
      </defs>
      <g>
       <use style="fill:#737373;stroke:#737373;" x="99.905325" xlink:href="#m16f54d43d7" y="422.928"/>
      </g>
     </g>
     <g id="text_1">
      <!-- L2 -->
      <defs>
       <path d="M 9.8125 72.90625 
L 19.671875 72.90625 
L 19.671875 8.296875 
L 55.171875 8.296875 
L 55.171875 0 
L 9.8125 0 
z
" id="DejaVuSans-4c"/>
       <path d="M 19.1875 8.296875 
L 53.609375 8.296875 
L 53.609375 0 
L 7.328125 0 
L 7.328125 8.296875 
Q 12.9375 14.109375 22.625 23.890625 
Q 32.328125 33.6875 34.8125 36.53125 
Q 39.546875 41.84375 41.421875 45.53125 
Q 43.3125 49.21875 43.3125 52.78125 
Q 43.3125 58.59375 39.234375 62.25 
Q 35.15625 65.921875 28.609375 65.921875 
Q 23.96875 65.921875 18.8125 64.3125 
Q 13.671875 62.703125 7.8125 59.421875 
L 7.8125 69.390625 
Q 13.765625 71.78125 18.9375 73 
Q 24.125 74.21875 28.421875 74.21875 
Q 39.75 74.21875 46.484375 68.546875 
Q 53.21875 62.890625 53.21875 53.421875 
Q 53.21875 48.921875 51.53125 44.890625 
Q 49.859375 40.875 45.40625 35.40625 
Q 44.1875 33.984375 37.640625 27.21875 
Q 31.109375 20.453125 19.1875 8.296875 
z
" id="DejaVuSans-32"/>
      </defs>
      <g style="fill:#737373;" transform="translate(97.151993 441.314937)rotate(-35)scale(0.0833 -0.0833)">
       <use xlink:href="#DejaVuSans-4c"/>
       <use x="55.712891" xlink:href="#DejaVuSans-32"/>
      </g>
     </g>
    </g>
    <g id="xtick_2">
     <g id="line2d_3">
      <path clip-path="url(#pcfc91ebeac)" d="M 132.923077 422.928 
L 132.923077 57.024 
" style="fill:none;stroke:#e6e6e6;stroke-dasharray:3.7,1.6;stroke-dashoffset:0;stroke-opacity:0.5;"/>
     </g>
     <g id="line2d_4">
      <g>
       <use style="fill:#737373;stroke:#737373;" x="132.923077" xlink:href="#m16f54d43d7" y="422.928"/>
      </g>
     </g>
     <g id="text_2">
      <!-- A12 -->
      <defs>
       <path d="M 34.1875 63.1875 
L 20.796875 26.90625 
L 47.609375 26.90625 
z
M 28.609375 72.90625 
L 39.796875 72.90625 
L 67.578125 0 
L 57.328125 0 
L 50.6875 18.703125 
L 17.828125 18.703125 
L 11.1875 0 
L 0.78125 0 
z
" id="DejaVuSans-41"/>
       <path d="M 12.40625 8.296875 
L 28.515625 8.296875 
L 28.515625 63.921875 
L 10.984375 60.40625 
L 10.984375 69.390625 
L 28.421875 72.90625 
L 38.28125 72.90625 
L 38.28125 8.296875 
L 54.390625 8.296875 
L 54.390625 0 
L 12.40625 0 
z
" id="DejaVuSans-31"/>
      </defs>
      <g style="fill:#737373;" transform="translate(127.566139 444.961065)rotate(-35)scale(0.0833 -0.0833)">
       <use xlink:href="#DejaVuSans-41"/>
       <use x="68.408203" xlink:href="#DejaVuSans-31"/>
       <use x="132.03125" xlink:href="#DejaVuSans-32"/>
      </g>
     </g>
    </g>
    <g id="xtick_3">
     <g id="line2d_5">
      <path clip-path="url(#pcfc91ebeac)" d="M 165.940828 422.928 
L 165.940828 57.024 
" style="fill:none;stroke:#e6e6e6;stroke-dasharray:3.7,1.6;stroke-dashoffset:0;stroke-opacity:0.5;"/>
     </g>
     <g id="line2d_6">
      <g>
       <use style="fill:#737373;stroke:#737373;" x="165.940828" xlink:href="#m16f54d43d7" y="422.928"/>
      </g>
     </g>
     <g id="text_3">
      <!-- D22 -->
      <defs>
       <path d="M 19.671875 64.796875 
L 19.671875 8.109375 
L 31.59375 8.109375 
Q 46.6875 8.109375 53.6875 14.9375 
Q 60.6875 21.78125 60.6875 36.53125 
Q 60.6875 51.171875 53.6875 57.984375 
Q 46.6875 64.796875 31.59375 64.796875 
z
M 9.8125 72.90625 
L 30.078125 72.90625 
Q 51.265625 72.90625 61.171875 64.09375 
Q 71.09375 55.28125 71.09375 36.53125 
Q 71.09375 17.671875 61.125 8.828125 
Q 51.171875 0 30.078125 0 
L 9.8125 0 
z
" id="DejaVuSans-44"/>
      </defs>
      <g style="fill:#737373;" transform="translate(160.290691 445.371665)rotate(-35)scale(0.0833 -0.0833)">
       <use xlink:href="#DejaVuSans-44"/>
       <use x="77.001953" xlink:href="#DejaVuSans-32"/>
       <use x="140.625" xlink:href="#DejaVuSans-32"/>
      </g>
     </g>
    </g>
    <g id="xtick_4">
     <g id="line2d_7">
      <path clip-path="url(#pcfc91ebeac)" d="M 198.95858 422.928 
L 198.95858 57.024 
" style="fill:none;stroke:#e6e6e6;stroke-dasharray:3.7,1.6;stroke-dashoffset:0;stroke-opacity:0.5;"/>
     </g>
     <g id="line2d_8">
      <g>
       <use style="fill:#737373;stroke:#737373;" x="198.95858" xlink:href="#m16f54d43d7" y="422.928"/>
      </g>
     </g>
     <g id="text_4">
      <!-- I32 -->
      <defs>
       <path d="M 9.8125 72.90625 
L 19.671875 72.90625 
L 19.671875 0 
L 9.8125 0 
z
" id="DejaVuSans-49"/>
       <path d="M 40.578125 39.3125 
Q 47.65625 37.796875 51.625 33 
Q 55.609375 28.21875 55.609375 21.1875 
Q 55.609375 10.40625 48.1875 4.484375 
Q 40.765625 -1.421875 27.09375 -1.421875 
Q 22.515625 -1.421875 17.65625 -0.515625 
Q 12.796875 0.390625 7.625 2.203125 
L 7.625 11.71875 
Q 11.71875 9.328125 16.59375 8.109375 
Q 21.484375 6.890625 26.8125 6.890625 
Q 36.078125 6.890625 40.9375 10.546875 
Q 45.796875 14.203125 45.796875 21.1875 
Q 45.796875 27.640625 41.28125 31.265625 
Q 36.765625 34.90625 28.71875 34.90625 
L 20.21875 34.90625 
L 20.21875 43.015625 
L 29.109375 43.015625 
Q 36.375 43.015625 40.234375 45.921875 
Q 44.09375 48.828125 44.09375 54.296875 
Q 44.09375 59.90625 40.109375 62.90625 
Q 36.140625 65.921875 28.71875 65.921875 
Q 24.65625 65.921875 20.015625 65.03125 
Q 15.375 64.15625 9.8125 62.3125 
L 9.8125 71.09375 
Q 15.4375 72.65625 20.34375 73.4375 
Q 25.25 74.21875 29.59375 74.21875 
Q 40.828125 74.21875 47.359375 69.109375 
Q 53.90625 64.015625 53.90625 55.328125 
Q 53.90625 49.265625 50.4375 45.09375 
Q 46.96875 40.921875 40.578125 39.3125 
z
" id="DejaVuSans-33"/>
      </defs>
      <g style="fill:#737373;" transform="translate(194.929033 443.102167)rotate(-35)scale(0.0833 -0.0833)">
       <use xlink:href="#DejaVuSans-49"/>
       <use x="29.492188" xlink:href="#DejaVuSans-33"/>
       <use x="93.115234" xlink:href="#DejaVuSans-32"/>
      </g>
     </g>
    </g>
    <g id="xtick_5">
     <g id="line2d_9">
      <path clip-path="url(#pcfc91ebeac)" d="M 231.976331 422.928 
L 231.976331 57.024 
" style="fill:none;stroke:#e6e6e6;stroke-dasharray:3.7,1.6;stroke-dashoffset:0;stroke-opacity:0.5;"/>
     </g>
     <g id="line2d_10">
      <g>
       <use style="fill:#737373;stroke:#737373;" x="231.976331" xlink:href="#m16f54d43d7" y="422.928"/>
      </g>
     </g>
     <g id="text_5">
      <!-- I42 -->
      <defs>
       <path d="M 37.796875 64.3125 
L 12.890625 25.390625 
L 37.796875 25.390625 
z
M 35.203125 72.90625 
L 47.609375 72.90625 
L 47.609375 25.390625 
L 58.015625 25.390625 
L 58.015625 17.1875 
L 47.609375 17.1875 
L 47.609375 0 
L 37.796875 0 
L 37.796875 17.1875 
L 4.890625 17.1875 
L 4.890625 26.703125 
z
" id="DejaVuSans-34"/>
      </defs>
      <g style="fill:#737373;" transform="translate(227.946784 443.102167)rotate(-35)scale(0.0833 -0.0833)">
       <use xlink:href="#DejaVuSans-49"/>
       <use x="29.492188" xlink:href="#DejaVuSans-34"/>
       <use x="93.115234" xlink:href="#DejaVuSans-32"/>
      </g>
     </g>
    </g>
    <g id="xtick_6">
     <g id="line2d_11">
      <path clip-path="url(#pcfc91ebeac)" d="M 264.994083 422.928 
L 264.994083 57.024 
" style="fill:none;stroke:#e6e6e6;stroke-dasharray:3.7,1.6;stroke-dashoffset:0;stroke-opacity:0.5;"/>
     </g>
     <g id="line2d_12">
      <g>
       <use style="fill:#737373;stroke:#737373;" x="264.994083" xlink:href="#m16f54d43d7" y="422.928"/>
      </g>
     </g>
     <g id="text_6">
      <!-- G52 -->
      <defs>
       <path d="M 59.515625 10.40625 
L 59.515625 29.984375 
L 43.40625 29.984375 
L 43.40625 38.09375 
L 69.28125 38.09375 
L 69.28125 6.78125 
Q 63.578125 2.734375 56.6875 0.65625 
Q 49.8125 -1.421875 42 -1.421875 
Q 24.90625 -1.421875 15.25 8.5625 
Q 5.609375 18.5625 5.609375 36.375 
Q 5.609375 54.25 15.25 64.234375 
Q 24.90625 74.21875 42 74.21875 
Q 49.125 74.21875 55.546875 72.453125 
Q 61.96875 70.703125 67.390625 67.28125 
L 67.390625 56.78125 
Q 61.921875 61.421875 55.765625 63.765625 
Q 49.609375 66.109375 42.828125 66.109375 
Q 29.4375 66.109375 22.71875 58.640625 
Q 16.015625 51.171875 16.015625 36.375 
Q 16.015625 21.625 22.71875 14.15625 
Q 29.4375 6.6875 42.828125 6.6875 
Q 48.046875 6.6875 52.140625 7.59375 
Q 56.25 8.5 59.515625 10.40625 
z
" id="DejaVuSans-47"/>
       <path d="M 10.796875 72.90625 
L 49.515625 72.90625 
L 49.515625 64.59375 
L 19.828125 64.59375 
L 19.828125 46.734375 
Q 21.96875 47.46875 24.109375 47.828125 
Q 26.265625 48.1875 28.421875 48.1875 
Q 40.625 48.1875 47.75 41.5 
Q 54.890625 34.8125 54.890625 23.390625 
Q 54.890625 11.625 47.5625 5.09375 
Q 40.234375 -1.421875 26.90625 -1.421875 
Q 22.3125 -1.421875 17.546875 -0.640625 
Q 12.796875 0.140625 7.71875 1.703125 
L 7.71875 11.625 
Q 12.109375 9.234375 16.796875 8.0625 
Q 21.484375 6.890625 26.703125 6.890625 
Q 35.15625 6.890625 40.078125 11.328125 
Q 45.015625 15.765625 45.015625 23.390625 
Q 45.015625 31 40.078125 35.4375 
Q 35.15625 39.890625 26.703125 39.890625 
Q 22.75 39.890625 18.8125 39.015625 
Q 14.890625 38.140625 10.796875 36.28125 
z
" id="DejaVuSans-35"/>
      </defs>
      <g style="fill:#737373;" transform="translate(259.32742 445.394808)rotate(-35)scale(0.0833 -0.0833)">
       <use xlink:href="#DejaVuSans-47"/>
       <use x="77.490234" xlink:href="#DejaVuSans-35"/>
       <use x="141.113281" xlink:href="#DejaVuSans-32"/>
      </g>
     </g>
    </g>
    <g id="xtick_7">
     <g id="line2d_13">
      <path clip-path="url(#pcfc91ebeac)" d="M 298.011834 422.928 
L 298.011834 57.024 
" style="fill:none;stroke:#e6e6e6;stroke-dasharray:3.7,1.6;stroke-dashoffset:0;stroke-opacity:0.5;"/>
     </g>
     <g id="line2d_14">
      <g>
       <use style="fill:#737373;stroke:#737373;" x="298.011834" xlink:href="#m16f54d43d7" y="422.928"/>
      </g>
     </g>
     <g id="text_7">
      <!-- D62 -->
      <defs>
       <path d="M 33.015625 40.375 
Q 26.375 40.375 22.484375 35.828125 
Q 18.609375 31.296875 18.609375 23.390625 
Q 18.609375 15.53125 22.484375 10.953125 
Q 26.375 6.390625 33.015625 6.390625 
Q 39.65625 6.390625 43.53125 10.953125 
Q 47.40625 15.53125 47.40625 23.390625 
Q 47.40625 31.296875 43.53125 35.828125 
Q 39.65625 40.375 33.015625 40.375 
z
M 52.59375 71.296875 
L 52.59375 62.3125 
Q 48.875 64.0625 45.09375 64.984375 
Q 41.3125 65.921875 37.59375 65.921875 
Q 27.828125 65.921875 22.671875 59.328125 
Q 17.53125 52.734375 16.796875 39.40625 
Q 19.671875 43.65625 24.015625 45.921875 
Q 28.375 48.1875 33.59375 48.1875 
Q 44.578125 48.1875 50.953125 41.515625 
Q 57.328125 34.859375 57.328125 23.390625 
Q 57.328125 12.15625 50.6875 5.359375 
Q 44.046875 -1.421875 33.015625 -1.421875 
Q 20.359375 -1.421875 13.671875 8.265625 
Q 6.984375 17.96875 6.984375 36.375 
Q 6.984375 53.65625 15.1875 63.9375 
Q 23.390625 74.21875 37.203125 74.21875 
Q 40.921875 74.21875 44.703125 73.484375 
Q 48.484375 72.75 52.59375 71.296875 
z
" id="DejaVuSans-36"/>
      </defs>
      <g style="fill:#737373;" transform="translate(292.361697 445.371665)rotate(-35)scale(0.0833 -0.0833)">
       <use xlink:href="#DejaVuSans-44"/>
       <use x="77.001953" xlink:href="#DejaVuSans-36"/>
       <use x="140.625" xlink:href="#DejaVuSans-32"/>
      </g>
     </g>
    </g>
    <g id="xtick_8">
     <g id="line2d_15">
      <path clip-path="url(#pcfc91ebeac)" d="M 331.029586 422.928 
L 331.029586 57.024 
" style="fill:none;stroke:#e6e6e6;stroke-dasharray:3.7,1.6;stroke-dashoffset:0;stroke-opacity:0.5;"/>
     </g>
     <g id="line2d_16">
      <g>
       <use style="fill:#737373;stroke:#737373;" x="331.029586" xlink:href="#m16f54d43d7" y="422.928"/>
      </g>
     </g>
     <g id="text_8">
      <!-- G72 -->
      <defs>
       <path d="M 8.203125 72.90625 
L 55.078125 72.90625 
L 55.078125 68.703125 
L 28.609375 0 
L 18.3125 0 
L 43.21875 64.59375 
L 8.203125 64.59375 
z
" id="DejaVuSans-37"/>
      </defs>
      <g style="fill:#737373;" transform="translate(325.362923 445.394808)rotate(-35)scale(0.0833 -0.0833)">
       <use xlink:href="#DejaVuSans-47"/>
       <use x="77.490234" xlink:href="#DejaVuSans-37"/>
       <use x="141.113281" xlink:href="#DejaVuSans-32"/>
      </g>
     </g>
    </g>
    <g id="xtick_9">
     <g id="line2d_17">
      <path clip-path="url(#pcfc91ebeac)" d="M 364.047337 422.928 
L 364.047337 57.024 
" style="fill:none;stroke:#e6e6e6;stroke-dasharray:3.7,1.6;stroke-dashoffset:0;stroke-opacity:0.5;"/>
     </g>
     <g id="line2d_18">
      <g>
       <use style="fill:#737373;stroke:#737373;" x="364.047337" xlink:href="#m16f54d43d7" y="422.928"/>
      </g>
     </g>
     <g id="text_9">
      <!-- Q82 -->
      <defs>
       <path d="M 39.40625 66.21875 
Q 28.65625 66.21875 22.328125 58.203125 
Q 16.015625 50.203125 16.015625 36.375 
Q 16.015625 22.609375 22.328125 14.59375 
Q 28.65625 6.59375 39.40625 6.59375 
Q 50.140625 6.59375 56.421875 14.59375 
Q 62.703125 22.609375 62.703125 36.375 
Q 62.703125 50.203125 56.421875 58.203125 
Q 50.140625 66.21875 39.40625 66.21875 
z
M 53.21875 1.3125 
L 66.21875 -12.890625 
L 54.296875 -12.890625 
L 43.5 -1.21875 
Q 41.890625 -1.3125 41.03125 -1.359375 
Q 40.1875 -1.421875 39.40625 -1.421875 
Q 24.03125 -1.421875 14.8125 8.859375 
Q 5.609375 19.140625 5.609375 36.375 
Q 5.609375 53.65625 14.8125 63.9375 
Q 24.03125 74.21875 39.40625 74.21875 
Q 54.734375 74.21875 63.90625 63.9375 
Q 73.09375 53.65625 73.09375 36.375 
Q 73.09375 23.6875 67.984375 14.640625 
Q 62.890625 5.609375 53.21875 1.3125 
z
" id="DejaVuSans-51"/>
       <path d="M 31.78125 34.625 
Q 24.75 34.625 20.71875 30.859375 
Q 16.703125 27.09375 16.703125 20.515625 
Q 16.703125 13.921875 20.71875 10.15625 
Q 24.75 6.390625 31.78125 6.390625 
Q 38.8125 6.390625 42.859375 10.171875 
Q 46.921875 13.96875 46.921875 20.515625 
Q 46.921875 27.09375 42.890625 30.859375 
Q 38.875 34.625 31.78125 34.625 
z
M 21.921875 38.8125 
Q 15.578125 40.375 12.03125 44.71875 
Q 8.5 49.078125 8.5 55.328125 
Q 8.5 64.0625 14.71875 69.140625 
Q 20.953125 74.21875 31.78125 74.21875 
Q 42.671875 74.21875 48.875 69.140625 
Q 55.078125 64.0625 55.078125 55.328125 
Q 55.078125 49.078125 51.53125 44.71875 
Q 48 40.375 41.703125 38.8125 
Q 48.828125 37.15625 52.796875 32.3125 
Q 56.78125 27.484375 56.78125 20.515625 
Q 56.78125 9.90625 50.3125 4.234375 
Q 43.84375 -1.421875 31.78125 -1.421875 
Q 19.734375 -1.421875 13.25 4.234375 
Q 6.78125 9.90625 6.78125 20.515625 
Q 6.78125 27.484375 10.78125 32.3125 
Q 14.796875 37.15625 21.921875 38.8125 
z
M 18.3125 54.390625 
Q 18.3125 48.734375 21.84375 45.5625 
Q 25.390625 42.390625 31.78125 42.390625 
Q 38.140625 42.390625 41.71875 45.5625 
Q 45.3125 48.734375 45.3125 54.390625 
Q 45.3125 60.0625 41.71875 63.234375 
Q 38.140625 66.40625 31.78125 66.40625 
Q 25.390625 66.40625 21.84375 63.234375 
Q 18.3125 60.0625 18.3125 54.390625 
z
" id="DejaVuSans-38"/>
      </defs>
      <g style="fill:#737373;" transform="translate(358.33856 445.453785)rotate(-35)scale(0.0833 -0.0833)">
       <use xlink:href="#DejaVuSans-51"/>
       <use x="78.710938" xlink:href="#DejaVuSans-38"/>
       <use x="142.333984" xlink:href="#DejaVuSans-32"/>
      </g>
     </g>
    </g>
    <g id="xtick_10">
     <g id="line2d_19">
      <path clip-path="url(#pcfc91ebeac)" d="M 397.065089 422.928 
L 397.065089 57.024 
" style="fill:none;stroke:#e6e6e6;stroke-dasharray:3.7,1.6;stroke-dashoffset:0;stroke-opacity:0.5;"/>
     </g>
     <g id="line2d_20">
      <g>
       <use style="fill:#737373;stroke:#737373;" x="397.065089" xlink:href="#m16f54d43d7" y="422.928"/>
      </g>
     </g>
     <g id="text_10">
      <!-- Q92 -->
      <defs>
       <path d="M 10.984375 1.515625 
L 10.984375 10.5 
Q 14.703125 8.734375 18.5 7.8125 
Q 22.3125 6.890625 25.984375 6.890625 
Q 35.75 6.890625 40.890625 13.453125 
Q 46.046875 20.015625 46.78125 33.40625 
Q 43.953125 29.203125 39.59375 26.953125 
Q 35.25 24.703125 29.984375 24.703125 
Q 19.046875 24.703125 12.671875 31.3125 
Q 6.296875 37.9375 6.296875 49.421875 
Q 6.296875 60.640625 12.9375 67.421875 
Q 19.578125 74.21875 30.609375 74.21875 
Q 43.265625 74.21875 49.921875 64.515625 
Q 56.59375 54.828125 56.59375 36.375 
Q 56.59375 19.140625 48.40625 8.859375 
Q 40.234375 -1.421875 26.421875 -1.421875 
Q 22.703125 -1.421875 18.890625 -0.6875 
Q 15.09375 0.046875 10.984375 1.515625 
z
M 30.609375 32.421875 
Q 37.25 32.421875 41.125 36.953125 
Q 45.015625 41.5 45.015625 49.421875 
Q 45.015625 57.28125 41.125 61.84375 
Q 37.25 66.40625 30.609375 66.40625 
Q 23.96875 66.40625 20.09375 61.84375 
Q 16.21875 57.28125 16.21875 49.421875 
Q 16.21875 41.5 20.09375 36.953125 
Q 23.96875 32.421875 30.609375 32.421875 
z
" id="DejaVuSans-39"/>
      </defs>
      <g style="fill:#737373;" transform="translate(391.356312 445.453785)rotate(-35)scale(0.0833 -0.0833)">
       <use xlink:href="#DejaVuSans-51"/>
       <use x="78.710938" xlink:href="#DejaVuSans-39"/>
       <use x="142.333984" xlink:href="#DejaVuSans-32"/>
      </g>
     </g>
    </g>
    <g id="xtick_11">
     <g id="line2d_21">
      <path clip-path="url(#pcfc91ebeac)" d="M 430.08284 422.928 
L 430.08284 57.024 
" style="fill:none;stroke:#e6e6e6;stroke-dasharray:3.7,1.6;stroke-dashoffset:0;stroke-opacity:0.5;"/>
     </g>
     <g id="line2d_22">
      <g>
       <use style="fill:#737373;stroke:#737373;" x="430.08284" xlink:href="#m16f54d43d7" y="422.928"/>
      </g>
     </g>
     <g id="text_11">
      <!-- P102 -->
      <defs>
       <path d="M 19.671875 64.796875 
L 19.671875 37.40625 
L 32.078125 37.40625 
Q 38.96875 37.40625 42.71875 40.96875 
Q 46.484375 44.53125 46.484375 51.125 
Q 46.484375 57.671875 42.71875 61.234375 
Q 38.96875 64.796875 32.078125 64.796875 
z
M 9.8125 72.90625 
L 32.078125 72.90625 
Q 44.34375 72.90625 50.609375 67.359375 
Q 56.890625 61.8125 56.890625 51.125 
Q 56.890625 40.328125 50.609375 34.8125 
Q 44.34375 29.296875 32.078125 29.296875 
L 19.671875 29.296875 
L 19.671875 0 
L 9.8125 0 
z
" id="DejaVuSans-50"/>
       <path d="M 31.78125 66.40625 
Q 24.171875 66.40625 20.328125 58.90625 
Q 16.5 51.421875 16.5 36.375 
Q 16.5 21.390625 20.328125 13.890625 
Q 24.171875 6.390625 31.78125 6.390625 
Q 39.453125 6.390625 43.28125 13.890625 
Q 47.125 21.390625 47.125 36.375 
Q 47.125 51.421875 43.28125 58.90625 
Q 39.453125 66.40625 31.78125 66.40625 
z
M 31.78125 74.21875 
Q 44.046875 74.21875 50.515625 64.515625 
Q 56.984375 54.828125 56.984375 36.375 
Q 56.984375 17.96875 50.515625 8.265625 
Q 44.046875 -1.421875 31.78125 -1.421875 
Q 19.53125 -1.421875 13.0625 8.265625 
Q 6.59375 17.96875 6.59375 36.375 
Q 6.59375 54.828125 13.0625 64.515625 
Q 19.53125 74.21875 31.78125 74.21875 
z
" id="DejaVuSans-30"/>
      </defs>
      <g style="fill:#737373;" transform="translate(422.831837 447.613542)rotate(-35)scale(0.0833 -0.0833)">
       <use xlink:href="#DejaVuSans-50"/>
       <use x="60.302734" xlink:href="#DejaVuSans-31"/>
       <use x="123.925781" xlink:href="#DejaVuSans-30"/>
       <use x="187.548828" xlink:href="#DejaVuSans-32"/>
      </g>
     </g>
    </g>
    <g id="xtick_12">
     <g id="line2d_23">
      <path clip-path="url(#pcfc91ebeac)" d="M 463.100592 422.928 
L 463.100592 57.024 
" style="fill:none;stroke:#e6e6e6;stroke-dasharray:3.7,1.6;stroke-dashoffset:0;stroke-opacity:0.5;"/>
     </g>
     <g id="line2d_24">
      <g>
       <use style="fill:#737373;stroke:#737373;" x="463.100592" xlink:href="#m16f54d43d7" y="422.928"/>
      </g>
     </g>
     <g id="text_12">
      <!-- P112 -->
      <g style="fill:#737373;" transform="translate(455.849589 447.613542)rotate(-35)scale(0.0833 -0.0833)">
       <use xlink:href="#DejaVuSans-50"/>
       <use x="60.302734" xlink:href="#DejaVuSans-31"/>
       <use x="123.925781" xlink:href="#DejaVuSans-31"/>
       <use x="187.548828" xlink:href="#DejaVuSans-32"/>
      </g>
     </g>
    </g>
    <g id="xtick_13">
     <g id="line2d_25">
      <path clip-path="url(#pcfc91ebeac)" d="M 496.118343 422.928 
L 496.118343 57.024 
" style="fill:none;stroke:#e6e6e6;stroke-dasharray:3.7,1.6;stroke-dashoffset:0;stroke-opacity:0.5;"/>
     </g>
     <g id="line2d_26">
      <g>
       <use style="fill:#737373;stroke:#737373;" x="496.118343" xlink:href="#m16f54d43d7" y="422.928"/>
      </g>
     </g>
     <g id="text_13">
      <!-- R122 -->
      <defs>
       <path d="M 44.390625 34.1875 
Q 47.5625 33.109375 50.5625 29.59375 
Q 53.5625 26.078125 56.59375 19.921875 
L 66.609375 0 
L 56 0 
L 46.6875 18.703125 
Q 43.0625 26.03125 39.671875 28.421875 
Q 36.28125 30.8125 30.421875 30.8125 
L 19.671875 30.8125 
L 19.671875 0 
L 9.8125 0 
L 9.8125 72.90625 
L 32.078125 72.90625 
Q 44.578125 72.90625 50.734375 67.671875 
Q 56.890625 62.453125 56.890625 51.90625 
Q 56.890625 45.015625 53.6875 40.46875 
Q 50.484375 35.9375 44.390625 34.1875 
z
M 19.671875 64.796875 
L 19.671875 38.921875 
L 32.078125 38.921875 
Q 39.203125 38.921875 42.84375 42.21875 
Q 46.484375 45.515625 46.484375 51.90625 
Q 46.484375 58.296875 42.84375 61.546875 
Q 39.203125 64.796875 32.078125 64.796875 
z
" id="DejaVuSans-52"/>
      </defs>
      <g style="fill:#737373;" transform="translate(488.553884 448.052511)rotate(-35)scale(0.0833 -0.0833)">
       <use xlink:href="#DejaVuSans-52"/>
       <use x="69.482422" xlink:href="#DejaVuSans-31"/>
       <use x="133.105469" xlink:href="#DejaVuSans-32"/>
       <use x="196.728516" xlink:href="#DejaVuSans-32"/>
      </g>
     </g>
    </g>
    <g id="xtick_14">
     <g id="line2d_27">
      <path clip-path="url(#pcfc91ebeac)" d="M 529.136095 422.928 
L 529.136095 57.024 
" style="fill:none;stroke:#e6e6e6;stroke-dasharray:3.7,1.6;stroke-dashoffset:0;stroke-opacity:0.5;"/>
     </g>
     <g id="line2d_28">
      <g>
       <use style="fill:#737373;stroke:#737373;" x="529.136095" xlink:href="#m16f54d43d7" y="422.928"/>
      </g>
     </g>
     <g id="text_14">
      <!-- G132 -->
      <g style="fill:#737373;" transform="translate(521.298694 448.434742)rotate(-35)scale(0.0833 -0.0833)">
       <use xlink:href="#DejaVuSans-47"/>
       <use x="77.490234" xlink:href="#DejaVuSans-31"/>
       <use x="141.113281" xlink:href="#DejaVuSans-33"/>
       <use x="204.736328" xlink:href="#DejaVuSans-32"/>
      </g>
     </g>
    </g>
    <g id="xtick_15">
     <g id="line2d_29">
      <path clip-path="url(#pcfc91ebeac)" d="M 562.153846 422.928 
L 562.153846 57.024 
" style="fill:none;stroke:#e6e6e6;stroke-dasharray:3.7,1.6;stroke-dashoffset:0;stroke-opacity:0.5;"/>
     </g>
     <g id="line2d_30">
      <g>
       <use style="fill:#737373;stroke:#737373;" x="562.153846" xlink:href="#m16f54d43d7" y="422.928"/>
      </g>
     </g>
     <g id="text_15">
      <!-- P142 -->
      <g style="fill:#737373;" transform="translate(554.902843 447.613542)rotate(-35)scale(0.0833 -0.0833)">
       <use xlink:href="#DejaVuSans-50"/>
       <use x="60.302734" xlink:href="#DejaVuSans-31"/>
       <use x="123.925781" xlink:href="#DejaVuSans-34"/>
       <use x="187.548828" xlink:href="#DejaVuSans-32"/>
      </g>
     </g>
    </g>
    <g id="xtick_16">
     <g id="line2d_31">
      <path clip-path="url(#pcfc91ebeac)" d="M 595.171598 422.928 
L 595.171598 57.024 
" style="fill:none;stroke:#e6e6e6;stroke-dasharray:3.7,1.6;stroke-dashoffset:0;stroke-opacity:0.5;"/>
     </g>
     <g id="line2d_32">
      <g>
       <use style="fill:#737373;stroke:#737373;" x="595.171598" xlink:href="#m16f54d43d7" y="422.928"/>
      </g>
     </g>
     <g id="text_16">
      <!-- Q152 -->
      <g style="fill:#737373;" transform="translate(587.292083 448.493719)rotate(-35)scale(0.0833 -0.0833)">
       <use xlink:href="#DejaVuSans-51"/>
       <use x="78.710938" xlink:href="#DejaVuSans-31"/>
       <use x="142.333984" xlink:href="#DejaVuSans-35"/>
       <use x="205.957031" xlink:href="#DejaVuSans-32"/>
      </g>
     </g>
    </g>
    <g id="xtick_17">
     <g id="line2d_33">
      <path clip-path="url(#pcfc91ebeac)" d="M 628.189349 422.928 
L 628.189349 57.024 
" style="fill:none;stroke:#e6e6e6;stroke-dasharray:3.7,1.6;stroke-dashoffset:0;stroke-opacity:0.5;"/>
     </g>
     <g id="line2d_34">
      <g>
       <use style="fill:#737373;stroke:#737373;" x="628.189349" xlink:href="#m16f54d43d7" y="422.928"/>
      </g>
     </g>
     <g id="text_17">
      <!-- G162 -->
      <g style="fill:#737373;" transform="translate(620.351949 448.434742)rotate(-35)scale(0.0833 -0.0833)">
       <use xlink:href="#DejaVuSans-47"/>
       <use x="77.490234" xlink:href="#DejaVuSans-31"/>
       <use x="141.113281" xlink:href="#DejaVuSans-36"/>
       <use x="204.736328" xlink:href="#DejaVuSans-32"/>
      </g>
     </g>
    </g>
    <g id="text_18">
     <!-- Residue -->
     <defs>
      <path d="M 56.203125 29.59375 
L 56.203125 25.203125 
L 14.890625 25.203125 
Q 15.484375 15.921875 20.484375 11.0625 
Q 25.484375 6.203125 34.421875 6.203125 
Q 39.59375 6.203125 44.453125 7.46875 
Q 49.3125 8.734375 54.109375 11.28125 
L 54.109375 2.78125 
Q 49.265625 0.734375 44.1875 -0.34375 
Q 39.109375 -1.421875 33.890625 -1.421875 
Q 20.796875 -1.421875 13.15625 6.1875 
Q 5.515625 13.8125 5.515625 26.8125 
Q 5.515625 40.234375 12.765625 48.109375 
Q 20.015625 56 32.328125 56 
Q 43.359375 56 49.78125 48.890625 
Q 56.203125 41.796875 56.203125 29.59375 
z
M 47.21875 32.234375 
Q 47.125 39.59375 43.09375 43.984375 
Q 39.0625 48.390625 32.421875 48.390625 
Q 24.90625 48.390625 20.390625 44.140625 
Q 15.875 39.890625 15.1875 32.171875 
z
" id="DejaVuSans-65"/>
      <path d="M 44.28125 53.078125 
L 44.28125 44.578125 
Q 40.484375 46.53125 36.375 47.5 
Q 32.28125 48.484375 27.875 48.484375 
Q 21.1875 48.484375 17.84375 46.4375 
Q 14.5 44.390625 14.5 40.28125 
Q 14.5 37.15625 16.890625 35.375 
Q 19.28125 33.59375 26.515625 31.984375 
L 29.59375 31.296875 
Q 39.15625 29.25 43.1875 25.515625 
Q 47.21875 21.78125 47.21875 15.09375 
Q 47.21875 7.46875 41.1875 3.015625 
Q 35.15625 -1.421875 24.609375 -1.421875 
Q 20.21875 -1.421875 15.453125 -0.5625 
Q 10.6875 0.296875 5.421875 2 
L 5.421875 11.28125 
Q 10.40625 8.6875 15.234375 7.390625 
Q 20.0625 6.109375 24.8125 6.109375 
Q 31.15625 6.109375 34.5625 8.28125 
Q 37.984375 10.453125 37.984375 14.40625 
Q 37.984375 18.0625 35.515625 20.015625 
Q 33.0625 21.96875 24.703125 23.78125 
L 21.578125 24.515625 
Q 13.234375 26.265625 9.515625 29.90625 
Q 5.8125 33.546875 5.8125 39.890625 
Q 5.8125 47.609375 11.28125 51.796875 
Q 16.75 56 26.8125 56 
Q 31.78125 56 36.171875 55.265625 
Q 40.578125 54.546875 44.28125 53.078125 
z
" id="DejaVuSans-73"/>
      <path d="M 9.421875 54.6875 
L 18.40625 54.6875 
L 18.40625 0 
L 9.421875 0 
z
M 9.421875 75.984375 
L 18.40625 75.984375 
L 18.40625 64.59375 
L 9.421875 64.59375 
z
" id="DejaVuSans-69"/>
      <path d="M 45.40625 46.390625 
L 45.40625 75.984375 
L 54.390625 75.984375 
L 54.390625 0 
L 45.40625 0 
L 45.40625 8.203125 
Q 42.578125 3.328125 38.25 0.953125 
Q 33.9375 -1.421875 27.875 -1.421875 
Q 17.96875 -1.421875 11.734375 6.484375 
Q 5.515625 14.40625 5.515625 27.296875 
Q 5.515625 40.1875 11.734375 48.09375 
Q 17.96875 56 27.875 56 
Q 33.9375 56 38.25 53.625 
Q 42.578125 51.265625 45.40625 46.390625 
z
M 14.796875 27.296875 
Q 14.796875 17.390625 18.875 11.75 
Q 22.953125 6.109375 30.078125 6.109375 
Q 37.203125 6.109375 41.296875 11.75 
Q 45.40625 17.390625 45.40625 27.296875 
Q 45.40625 37.203125 41.296875 42.84375 
Q 37.203125 48.484375 30.078125 48.484375 
Q 22.953125 48.484375 18.875 42.84375 
Q 14.796875 37.203125 14.796875 27.296875 
z
" id="DejaVuSans-64"/>
      <path d="M 8.5 21.578125 
L 8.5 54.6875 
L 17.484375 54.6875 
L 17.484375 21.921875 
Q 17.484375 14.15625 20.5 10.265625 
Q 23.53125 6.390625 29.59375 6.390625 
Q 36.859375 6.390625 41.078125 11.03125 
Q 45.3125 15.671875 45.3125 23.6875 
L 45.3125 54.6875 
L 54.296875 54.6875 
L 54.296875 0 
L 45.3125 0 
L 45.3125 8.40625 
Q 42.046875 3.421875 37.71875 1 
Q 33.40625 -1.421875 27.6875 -1.421875 
Q 18.265625 -1.421875 13.375 4.4375 
Q 8.5 10.296875 8.5 21.578125 
z
M 31.109375 56 
z
" id="DejaVuSans-75"/>
     </defs>
     <g style="fill:#737373;" transform="translate(349.039062 461.511239)scale(0.1 -0.1)">
      <use xlink:href="#DejaVuSans-52"/>
      <use x="69.419922" xlink:href="#DejaVuSans-65"/>
      <use x="130.943359" xlink:href="#DejaVuSans-73"/>
      <use x="183.042969" xlink:href="#DejaVuSans-69"/>
      <use x="210.826172" xlink:href="#DejaVuSans-64"/>
      <use x="274.302734" xlink:href="#DejaVuSans-75"/>
      <use x="337.681641" xlink:href="#DejaVuSans-65"/>
     </g>
    </g>
   </g>
   <g id="matplotlib.axis_2">
    <g id="ytick_1">
     <g id="line2d_35">
      <path clip-path="url(#pcfc91ebeac)" d="M 90 422.928 
L 648 422.928 
" style="fill:none;stroke:#e6e6e6;stroke-dasharray:3.7,1.6;stroke-dashoffset:0;stroke-opacity:0.5;"/>
     </g>
     <g id="line2d_36">
      <defs>
       <path d="M 0 0 
L -3.5 0 
" id="m1774dd3870" style="stroke:#737373;"/>
      </defs>
      <g>
       <use style="fill:#737373;stroke:#737373;" x="90" xlink:href="#m1774dd3870" y="422.928"/>
      </g>
     </g>
     <g id="text_19">
      <!-- −4 -->
      <defs>
       <path d="M 10.59375 35.5 
L 73.1875 35.5 
L 73.1875 27.203125 
L 10.59375 27.203125 
z
" id="DejaVuSans-2212"/>
      </defs>
      <g style="fill:#737373;" transform="translate(66.757812 426.727219)scale(0.1 -0.1)">
       <use xlink:href="#DejaVuSans-2212"/>
       <use x="83.789062" xlink:href="#DejaVuSans-34"/>
      </g>
     </g>
    </g>
    <g id="ytick_2">
     <g id="line2d_37">
      <path clip-path="url(#pcfc91ebeac)" d="M 90 377.19 
L 648 377.19 
" style="fill:none;stroke:#e6e6e6;stroke-dasharray:3.7,1.6;stroke-dashoffset:0;stroke-opacity:0.5;"/>
     </g>
     <g id="line2d_38">
      <g>
       <use style="fill:#737373;stroke:#737373;" x="90" xlink:href="#m1774dd3870" y="377.19"/>
      </g>
     </g>
     <g id="text_20">
      <!-- −3 -->
      <g style="fill:#737373;" transform="translate(66.757812 380.989219)scale(0.1 -0.1)">
       <use xlink:href="#DejaVuSans-2212"/>
       <use x="83.789062" xlink:href="#DejaVuSans-33"/>
      </g>
     </g>
    </g>
    <g id="ytick_3">
     <g id="line2d_39">
      <path clip-path="url(#pcfc91ebeac)" d="M 90 331.452 
L 648 331.452 
" style="fill:none;stroke:#e6e6e6;stroke-dasharray:3.7,1.6;stroke-dashoffset:0;stroke-opacity:0.5;"/>
     </g>
     <g id="line2d_40">
      <g>
       <use style="fill:#737373;stroke:#737373;" x="90" xlink:href="#m1774dd3870" y="331.452"/>
      </g>
     </g>
     <g id="text_21">
      <!-- −2 -->
      <g style="fill:#737373;" transform="translate(66.757812 335.251219)scale(0.1 -0.1)">
       <use xlink:href="#DejaVuSans-2212"/>
       <use x="83.789062" xlink:href="#DejaVuSans-32"/>
      </g>
     </g>
    </g>
    <g id="ytick_4">
     <g id="line2d_41">
      <path clip-path="url(#pcfc91ebeac)" d="M 90 285.714 
L 648 285.714 
" style="fill:none;stroke:#e6e6e6;stroke-dasharray:3.7,1.6;stroke-dashoffset:0;stroke-opacity:0.5;"/>
     </g>
     <g id="line2d_42">
      <g>
       <use style="fill:#737373;stroke:#737373;" x="90" xlink:href="#m1774dd3870" y="285.714"/>
      </g>
     </g>
     <g id="text_22">
      <!-- −1 -->
      <g style="fill:#737373;" transform="translate(66.757812 289.513219)scale(0.1 -0.1)">
       <use xlink:href="#DejaVuSans-2212"/>
       <use x="83.789062" xlink:href="#DejaVuSans-31"/>
      </g>
     </g>
    </g>
    <g id="ytick_5">
     <g id="line2d_43">
      <path clip-path="url(#pcfc91ebeac)" d="M 90 239.976 
L 648 239.976 
" style="fill:none;stroke:#e6e6e6;stroke-dasharray:3.7,1.6;stroke-dashoffset:0;stroke-opacity:0.5;"/>
     </g>
     <g id="line2d_44">
      <g>
       <use style="fill:#737373;stroke:#737373;" x="90" xlink:href="#m1774dd3870" y="239.976"/>
      </g>
     </g>
     <g id="text_23">
      <!-- 0 -->
      <g style="fill:#737373;" transform="translate(75.1375 243.775219)scale(0.1 -0.1)">
       <use xlink:href="#DejaVuSans-30"/>
      </g>
     </g>
    </g>
    <g id="ytick_6">
     <g id="line2d_45">
      <path clip-path="url(#pcfc91ebeac)" d="M 90 194.238 
L 648 194.238 
" style="fill:none;stroke:#e6e6e6;stroke-dasharray:3.7,1.6;stroke-dashoffset:0;stroke-opacity:0.5;"/>
     </g>
     <g id="line2d_46">
      <g>
       <use style="fill:#737373;stroke:#737373;" x="90" xlink:href="#m1774dd3870" y="194.238"/>
      </g>
     </g>
     <g id="text_24">
      <!-- 1 -->
      <g style="fill:#737373;" transform="translate(75.1375 198.037219)scale(0.1 -0.1)">
       <use xlink:href="#DejaVuSans-31"/>
      </g>
     </g>
    </g>
    <g id="ytick_7">
     <g id="line2d_47">
      <path clip-path="url(#pcfc91ebeac)" d="M 90 148.5 
L 648 148.5 
" style="fill:none;stroke:#e6e6e6;stroke-dasharray:3.7,1.6;stroke-dashoffset:0;stroke-opacity:0.5;"/>
     </g>
     <g id="line2d_48">
      <g>
       <use style="fill:#737373;stroke:#737373;" x="90" xlink:href="#m1774dd3870" y="148.5"/>
      </g>
     </g>
     <g id="text_25">
      <!-- 2 -->
      <g style="fill:#737373;" transform="translate(75.1375 152.299219)scale(0.1 -0.1)">
       <use xlink:href="#DejaVuSans-32"/>
      </g>
     </g>
    </g>
    <g id="ytick_8">
     <g id="line2d_49">
      <path clip-path="url(#pcfc91ebeac)" d="M 90 102.762 
L 648 102.762 
" style="fill:none;stroke:#e6e6e6;stroke-dasharray:3.7,1.6;stroke-dashoffset:0;stroke-opacity:0.5;"/>
     </g>
     <g id="line2d_50">
      <g>
       <use style="fill:#737373;stroke:#737373;" x="90" xlink:href="#m1774dd3870" y="102.762"/>
      </g>
     </g>
     <g id="text_26">
      <!-- 3 -->
      <g style="fill:#737373;" transform="translate(75.1375 106.561219)scale(0.1 -0.1)">
       <use xlink:href="#DejaVuSans-33"/>
      </g>
     </g>
    </g>
    <g id="ytick_9">
     <g id="line2d_51">
      <path clip-path="url(#pcfc91ebeac)" d="M 90 57.024 
L 648 57.024 
" style="fill:none;stroke:#e6e6e6;stroke-dasharray:3.7,1.6;stroke-dashoffset:0;stroke-opacity:0.5;"/>
     </g>
     <g id="line2d_52">
      <g>
       <use style="fill:#737373;stroke:#737373;" x="90" xlink:href="#m1774dd3870" y="57.024"/>
      </g>
     </g>
     <g id="text_27">
      <!-- 4 -->
      <g style="fill:#737373;" transform="translate(75.1375 60.823219)scale(0.1 -0.1)">
       <use xlink:href="#DejaVuSans-34"/>
      </g>
     </g>
    </g>
    <g id="text_28">
     <!-- Score -->
     <defs>
      <path d="M 53.515625 70.515625 
L 53.515625 60.890625 
Q 47.90625 63.578125 42.921875 64.890625 
Q 37.9375 66.21875 33.296875 66.21875 
Q 25.25 66.21875 20.875 63.09375 
Q 16.5 59.96875 16.5 54.203125 
Q 16.5 49.359375 19.40625 46.890625 
Q 22.3125 44.4375 30.421875 42.921875 
L 36.375 41.703125 
Q 47.40625 39.59375 52.65625 34.296875 
Q 57.90625 29 57.90625 20.125 
Q 57.90625 9.515625 50.796875 4.046875 
Q 43.703125 -1.421875 29.984375 -1.421875 
Q 24.8125 -1.421875 18.96875 -0.25 
Q 13.140625 0.921875 6.890625 3.21875 
L 6.890625 13.375 
Q 12.890625 10.015625 18.65625 8.296875 
Q 24.421875 6.59375 29.984375 6.59375 
Q 38.421875 6.59375 43.015625 9.90625 
Q 47.609375 13.234375 47.609375 19.390625 
Q 47.609375 24.75 44.3125 27.78125 
Q 41.015625 30.8125 33.5 32.328125 
L 27.484375 33.5 
Q 16.453125 35.6875 11.515625 40.375 
Q 6.59375 45.0625 6.59375 53.421875 
Q 6.59375 63.09375 13.40625 68.65625 
Q 20.21875 74.21875 32.171875 74.21875 
Q 37.3125 74.21875 42.625 73.28125 
Q 47.953125 72.359375 53.515625 70.515625 
z
" id="DejaVuSans-53"/>
      <path d="M 48.78125 52.59375 
L 48.78125 44.1875 
Q 44.96875 46.296875 41.140625 47.34375 
Q 37.3125 48.390625 33.40625 48.390625 
Q 24.65625 48.390625 19.8125 42.84375 
Q 14.984375 37.3125 14.984375 27.296875 
Q 14.984375 17.28125 19.8125 11.734375 
Q 24.65625 6.203125 33.40625 6.203125 
Q 37.3125 6.203125 41.140625 7.25 
Q 44.96875 8.296875 48.78125 10.40625 
L 48.78125 2.09375 
Q 45.015625 0.34375 40.984375 -0.53125 
Q 36.96875 -1.421875 32.421875 -1.421875 
Q 20.0625 -1.421875 12.78125 6.34375 
Q 5.515625 14.109375 5.515625 27.296875 
Q 5.515625 40.671875 12.859375 48.328125 
Q 20.21875 56 33.015625 56 
Q 37.15625 56 41.109375 55.140625 
Q 45.0625 54.296875 48.78125 52.59375 
z
" id="DejaVuSans-63"/>
      <path d="M 30.609375 48.390625 
Q 23.390625 48.390625 19.1875 42.75 
Q 14.984375 37.109375 14.984375 27.296875 
Q 14.984375 17.484375 19.15625 11.84375 
Q 23.34375 6.203125 30.609375 6.203125 
Q 37.796875 6.203125 41.984375 11.859375 
Q 46.1875 17.53125 46.1875 27.296875 
Q 46.1875 37.015625 41.984375 42.703125 
Q 37.796875 48.390625 30.609375 48.390625 
z
M 30.609375 56 
Q 42.328125 56 49.015625 48.375 
Q 55.71875 40.765625 55.71875 27.296875 
Q 55.71875 13.875 49.015625 6.21875 
Q 42.328125 -1.421875 30.609375 -1.421875 
Q 18.84375 -1.421875 12.171875 6.21875 
Q 5.515625 13.875 5.515625 27.296875 
Q 5.515625 40.765625 12.171875 48.375 
Q 18.84375 56 30.609375 56 
z
" id="DejaVuSans-6f"/>
      <path d="M 41.109375 46.296875 
Q 39.59375 47.171875 37.8125 47.578125 
Q 36.03125 48 33.890625 48 
Q 26.265625 48 22.1875 43.046875 
Q 18.109375 38.09375 18.109375 28.8125 
L 18.109375 0 
L 9.078125 0 
L 9.078125 54.6875 
L 18.109375 54.6875 
L 18.109375 46.1875 
Q 20.953125 51.171875 25.484375 53.578125 
Q 30.03125 56 36.53125 56 
Q 37.453125 56 38.578125 55.875 
Q 39.703125 55.765625 41.0625 55.515625 
z
" id="DejaVuSans-72"/>
     </defs>
     <g style="fill:#737373;" transform="translate(60.678125 254.089281)rotate(-90)scale(0.1 -0.1)">
      <use xlink:href="#DejaVuSans-53"/>
      <use x="63.476562" xlink:href="#DejaVuSans-63"/>
      <use x="118.457031" xlink:href="#DejaVuSans-6f"/>
      <use x="179.638672" xlink:href="#DejaVuSans-72"/>
      <use x="220.720703" xlink:href="#DejaVuSans-65"/>
     </g>
    </g>
   </g>
   <g id="line2d_53">
    <path clip-path="url(#pcfc91ebeac)" d="M 90 239.976 
L 648 239.976 
" style="fill:none;stroke:#737373;stroke-dasharray:3.7,1.6;stroke-dashoffset:0;"/>
   </g>
   <g id="line2d_54">
    <path clip-path="url(#pcfc91ebeac)" d="M 96.60355 81.727094 
L 99.905325 42.401561 
L 103.207101 20.525076 
L 105.970029 -1 
M 111.652631 -1 
L 113.112426 5.824883 
L 116.414201 40.146678 
L 119.715976 23.008649 
L 123.017751 58.153729 
L 126.319527 44.862266 
L 129.621302 66.930851 
L 132.923077 122.040567 
L 136.224852 121.185266 
L 139.526627 187.674597 
L 142.828402 232.301164 
L 146.130178 254.035861 
L 149.431953 339.49274 
L 152.733728 367.173378 
L 156.035503 299.407957 
L 159.337278 376.563389 
L 162.639053 400.397461 
L 165.940828 353.964244 
L 169.242604 264.171402 
L 172.544379 318.869476 
L 175.846154 349.532231 
L 179.147929 363.390845 
L 182.449704 328.565932 
L 185.751479 201.149012 
L 189.053254 175.828455 
L 192.35503 97.474687 
L 195.656805 84.187798 
L 198.95858 123.243476 
L 205.56213 306.341838 
L 208.863905 318.988395 
L 212.16568 345.150531 
L 215.467456 380.286463 
L 218.769231 340.553862 
L 222.071006 340.553862 
L 225.372781 292.47865 
L 228.674556 197.567726 
L 231.976331 211.284553 
L 235.278107 342.269037 
L 238.579882 392.846117 
L 241.881657 433.100131 
L 245.183432 436.987861 
L 248.485207 401.979996 
L 251.786982 327.363023 
L 255.088757 276.763073 
L 258.390533 246.059154 
L 261.692308 203.166058 
L 264.994083 261.600926 
L 268.295858 302.101925 
L 271.597633 337.608335 
L 274.899408 348.388781 
L 278.201183 323.420407 
L 281.502959 326.873626 
L 284.804734 293.311082 
L 288.106509 284.735207 
L 291.408284 284.867847 
L 294.710059 313.600459 
L 298.011834 358.249894 
L 301.313609 360.95301 
L 304.615385 375.849877 
L 307.91716 396.916799 
L 311.218935 413.812417 
L 314.52071 395.645283 
L 321.12426 324.586726 
L 324.426036 350.639091 
L 327.727811 348.356765 
L 331.029586 322.981322 
L 334.331361 309.625826 
L 337.633136 318.846607 
L 340.934911 349.861545 
L 344.236686 350.767157 
L 347.538462 342.328496 
L 350.840237 349.596265 
L 354.142012 372.108508 
L 357.443787 379.774197 
L 360.745562 378.013284 
L 364.047337 363.04781 
L 367.349112 324.243691 
L 370.650888 293.832495 
L 373.952663 289.807551 
L 377.254438 286.907762 
L 380.556213 305.669489 
L 383.857988 336.602099 
L 387.159763 342.264463 
L 390.461538 366.093961 
L 393.763314 336.853658 
L 397.065089 338.664883 
L 400.366864 320.776751 
L 403.668639 305.367619 
L 406.970414 316.934759 
L 410.272189 343.696063 
L 413.573964 350.140547 
L 416.87574 331.689838 
L 420.177515 324.696497 
L 423.47929 320.122697 
L 426.781065 292.785095 
L 430.08284 289.885306 
L 433.384615 290.909837 
L 436.686391 307.430402 
L 439.988166 338.468209 
L 443.289941 345.790863 
L 446.591716 372.886054 
L 449.893491 339.414986 
L 453.195266 340.302303 
L 456.497041 321.005441 
L 459.798817 304.603794 
L 463.100592 316.660331 
L 466.402367 343.549701 
L 469.704142 349.202918 
L 473.005917 331.511459 
L 476.307692 335.20709 
L 479.609467 340.082761 
L 482.911243 328.433292 
L 486.213018 368.792503 
L 489.514793 333.592538 
L 492.816568 340.197106 
L 496.118343 380.368791 
L 499.420118 360.198333 
L 502.721893 380.16297 
L 506.023669 343.654898 
L 509.325444 340.17881 
L 512.627219 319.916876 
L 515.928994 303.707329 
L 519.230769 315.727276 
L 522.532544 343.174649 
L 525.83432 349.184623 
L 529.136095 337.000019 
L 532.43787 343.060304 
L 535.739645 357.344282 
L 539.04142 361.703113 
L 542.343195 354.87443 
L 545.64497 321.668642 
L 548.946746 292.5747 
L 552.248521 282.173879 
L 555.550296 273.163493 
L 558.852071 273.108607 
L 565.455621 291.573038 
L 568.757396 319.19879 
L 572.059172 353.977965 
L 575.360947 329.233707 
L 578.662722 336.803346 
L 581.964497 311.528527 
L 585.266272 292.661602 
L 588.568047 292.666176 
L 591.869822 298.456607 
L 595.171598 331.785887 
L 598.473373 323.649097 
L 601.775148 338.321848 
L 605.076923 369.396245 
L 608.378698 334.452413 
L 611.680473 339.831202 
L 614.982249 320.104402 
L 618.284024 299.526876 
L 621.585799 310.307323 
L 624.887574 331.964266 
L 628.189349 323.402112 
L 631.491124 334.790874 
L 634.792899 307.960963 
L 638.094675 299.078644 
L 641.39645 309.612105 
L 641.39645 309.612105 
" style="fill:none;stroke:#1f77b4;stroke-linecap:square;stroke-opacity:0.75;stroke-width:1.5;"/>
    <defs>
     <path d="M 0 3 
C 0.795609 3 1.55874 2.683901 2.12132 2.12132 
C 2.683901 1.55874 3 0.795609 3 0 
C 3 -0.795609 2.683901 -1.55874 2.12132 -2.12132 
C 1.55874 -2.683901 0.795609 -3 0 -3 
C -0.795609 -3 -1.55874 -2.683901 -2.12132 -2.12132 
C -2.683901 -1.55874 -3 -0.795609 -3 0 
C -3 0.795609 -2.683901 1.55874 -2.12132 2.12132 
C -1.55874 2.683901 -0.795609 3 0 3 
z
" id="ma1df9dd9cb" style="stroke:#000000;stroke-opacity:0;"/>
    </defs>
    <g clip-path="url(#pcfc91ebeac)">
     <use style="fill:#1f77b4;fill-opacity:0.75;stroke:#000000;stroke-opacity:0;" x="96.60355" xlink:href="#ma1df9dd9cb" y="81.727094"/>
     <use style="fill:#1f77b4;fill-opacity:0.75;stroke:#000000;stroke-opacity:0;" x="99.905325" xlink:href="#ma1df9dd9cb" y="42.401561"/>
     <use style="fill:#1f77b4;fill-opacity:0.75;stroke:#000000;stroke-opacity:0;" x="103.207101" xlink:href="#ma1df9dd9cb" y="20.525076"/>
     <use style="fill:#1f77b4;fill-opacity:0.75;stroke:#000000;stroke-opacity:0;" x="105.970029" xlink:href="#ma1df9dd9cb" y="-1"/>
     <use style="fill:#1f77b4;fill-opacity:0.75;stroke:#000000;stroke-opacity:0;" x="111.652631" xlink:href="#ma1df9dd9cb" y="-1"/>
     <use style="fill:#1f77b4;fill-opacity:0.75;stroke:#000000;stroke-opacity:0;" x="113.112426" xlink:href="#ma1df9dd9cb" y="5.824883"/>
     <use style="fill:#1f77b4;fill-opacity:0.75;stroke:#000000;stroke-opacity:0;" x="116.414201" xlink:href="#ma1df9dd9cb" y="40.146678"/>
     <use style="fill:#1f77b4;fill-opacity:0.75;stroke:#000000;stroke-opacity:0;" x="119.715976" xlink:href="#ma1df9dd9cb" y="23.008649"/>
     <use style="fill:#1f77b4;fill-opacity:0.75;stroke:#000000;stroke-opacity:0;" x="123.017751" xlink:href="#ma1df9dd9cb" y="58.153729"/>
     <use style="fill:#1f77b4;fill-opacity:0.75;stroke:#000000;stroke-opacity:0;" x="126.319527" xlink:href="#ma1df9dd9cb" y="44.862266"/>
     <use style="fill:#1f77b4;fill-opacity:0.75;stroke:#000000;stroke-opacity:0;" x="129.621302" xlink:href="#ma1df9dd9cb" y="66.930851"/>
     <use style="fill:#1f77b4;fill-opacity:0.75;stroke:#000000;stroke-opacity:0;" x="132.923077" xlink:href="#ma1df9dd9cb" y="122.040567"/>
     <use style="fill:#1f77b4;fill-opacity:0.75;stroke:#000000;stroke-opacity:0;" x="136.224852" xlink:href="#ma1df9dd9cb" y="121.185266"/>
     <use style="fill:#1f77b4;fill-opacity:0.75;stroke:#000000;stroke-opacity:0;" x="139.526627" xlink:href="#ma1df9dd9cb" y="187.674597"/>
     <use style="fill:#1f77b4;fill-opacity:0.75;stroke:#000000;stroke-opacity:0;" x="142.828402" xlink:href="#ma1df9dd9cb" y="232.301164"/>
     <use style="fill:#1f77b4;fill-opacity:0.75;stroke:#000000;stroke-opacity:0;" x="146.130178" xlink:href="#ma1df9dd9cb" y="254.035861"/>
     <use style="fill:#1f77b4;fill-opacity:0.75;stroke:#000000;stroke-opacity:0;" x="149.431953" xlink:href="#ma1df9dd9cb" y="339.49274"/>
     <use style="fill:#1f77b4;fill-opacity:0.75;stroke:#000000;stroke-opacity:0;" x="152.733728" xlink:href="#ma1df9dd9cb" y="367.173378"/>
     <use style="fill:#1f77b4;fill-opacity:0.75;stroke:#000000;stroke-opacity:0;" x="156.035503" xlink:href="#ma1df9dd9cb" y="299.407957"/>
     <use style="fill:#1f77b4;fill-opacity:0.75;stroke:#000000;stroke-opacity:0;" x="159.337278" xlink:href="#ma1df9dd9cb" y="376.563389"/>
     <use style="fill:#1f77b4;fill-opacity:0.75;stroke:#000000;stroke-opacity:0;" x="162.639053" xlink:href="#ma1df9dd9cb" y="400.397461"/>
     <use style="fill:#1f77b4;fill-opacity:0.75;stroke:#000000;stroke-opacity:0;" x="165.940828" xlink:href="#ma1df9dd9cb" y="353.964244"/>
     <use style="fill:#1f77b4;fill-opacity:0.75;stroke:#000000;stroke-opacity:0;" x="169.242604" xlink:href="#ma1df9dd9cb" y="264.171402"/>
     <use style="fill:#1f77b4;fill-opacity:0.75;stroke:#000000;stroke-opacity:0;" x="172.544379" xlink:href="#ma1df9dd9cb" y="318.869476"/>
     <use style="fill:#1f77b4;fill-opacity:0.75;stroke:#000000;stroke-opacity:0;" x="175.846154" xlink:href="#ma1df9dd9cb" y="349.532231"/>
     <use style="fill:#1f77b4;fill-opacity:0.75;stroke:#000000;stroke-opacity:0;" x="179.147929" xlink:href="#ma1df9dd9cb" y="363.390845"/>
     <use style="fill:#1f77b4;fill-opacity:0.75;stroke:#000000;stroke-opacity:0;" x="182.449704" xlink:href="#ma1df9dd9cb" y="328.565932"/>
     <use style="fill:#1f77b4;fill-opacity:0.75;stroke:#000000;stroke-opacity:0;" x="185.751479" xlink:href="#ma1df9dd9cb" y="201.149012"/>
     <use style="fill:#1f77b4;fill-opacity:0.75;stroke:#000000;stroke-opacity:0;" x="189.053254" xlink:href="#ma1df9dd9cb" y="175.828455"/>
     <use style="fill:#1f77b4;fill-opacity:0.75;stroke:#000000;stroke-opacity:0;" x="192.35503" xlink:href="#ma1df9dd9cb" y="97.474687"/>
     <use style="fill:#1f77b4;fill-opacity:0.75;stroke:#000000;stroke-opacity:0;" x="195.656805" xlink:href="#ma1df9dd9cb" y="84.187798"/>
     <use style="fill:#1f77b4;fill-opacity:0.75;stroke:#000000;stroke-opacity:0;" x="198.95858" xlink:href="#ma1df9dd9cb" y="123.243476"/>
     <use style="fill:#1f77b4;fill-opacity:0.75;stroke:#000000;stroke-opacity:0;" x="202.260355" xlink:href="#ma1df9dd9cb" y="215.725712"/>
     <use style="fill:#1f77b4;fill-opacity:0.75;stroke:#000000;stroke-opacity:0;" x="205.56213" xlink:href="#ma1df9dd9cb" y="306.341838"/>
     <use style="fill:#1f77b4;fill-opacity:0.75;stroke:#000000;stroke-opacity:0;" x="208.863905" xlink:href="#ma1df9dd9cb" y="318.988395"/>
     <use style="fill:#1f77b4;fill-opacity:0.75;stroke:#000000;stroke-opacity:0;" x="212.16568" xlink:href="#ma1df9dd9cb" y="345.150531"/>
     <use style="fill:#1f77b4;fill-opacity:0.75;stroke:#000000;stroke-opacity:0;" x="215.467456" xlink:href="#ma1df9dd9cb" y="380.286463"/>
     <use style="fill:#1f77b4;fill-opacity:0.75;stroke:#000000;stroke-opacity:0;" x="218.769231" xlink:href="#ma1df9dd9cb" y="340.553862"/>
     <use style="fill:#1f77b4;fill-opacity:0.75;stroke:#000000;stroke-opacity:0;" x="222.071006" xlink:href="#ma1df9dd9cb" y="340.553862"/>
     <use style="fill:#1f77b4;fill-opacity:0.75;stroke:#000000;stroke-opacity:0;" x="225.372781" xlink:href="#ma1df9dd9cb" y="292.47865"/>
     <use style="fill:#1f77b4;fill-opacity:0.75;stroke:#000000;stroke-opacity:0;" x="228.674556" xlink:href="#ma1df9dd9cb" y="197.567726"/>
     <use style="fill:#1f77b4;fill-opacity:0.75;stroke:#000000;stroke-opacity:0;" x="231.976331" xlink:href="#ma1df9dd9cb" y="211.284553"/>
     <use style="fill:#1f77b4;fill-opacity:0.75;stroke:#000000;stroke-opacity:0;" x="235.278107" xlink:href="#ma1df9dd9cb" y="342.269037"/>
     <use style="fill:#1f77b4;fill-opacity:0.75;stroke:#000000;stroke-opacity:0;" x="238.579882" xlink:href="#ma1df9dd9cb" y="392.846117"/>
     <use style="fill:#1f77b4;fill-opacity:0.75;stroke:#000000;stroke-opacity:0;" x="241.881657" xlink:href="#ma1df9dd9cb" y="433.100131"/>
     <use style="fill:#1f77b4;fill-opacity:0.75;stroke:#000000;stroke-opacity:0;" x="245.183432" xlink:href="#ma1df9dd9cb" y="436.987861"/>
     <use style="fill:#1f77b4;fill-opacity:0.75;stroke:#000000;stroke-opacity:0;" x="248.485207" xlink:href="#ma1df9dd9cb" y="401.979996"/>
     <use style="fill:#1f77b4;fill-opacity:0.75;stroke:#000000;stroke-opacity:0;" x="251.786982" xlink:href="#ma1df9dd9cb" y="327.363023"/>
     <use style="fill:#1f77b4;fill-opacity:0.75;stroke:#000000;stroke-opacity:0;" x="255.088757" xlink:href="#ma1df9dd9cb" y="276.763073"/>
     <use style="fill:#1f77b4;fill-opacity:0.75;stroke:#000000;stroke-opacity:0;" x="258.390533" xlink:href="#ma1df9dd9cb" y="246.059154"/>
     <use style="fill:#1f77b4;fill-opacity:0.75;stroke:#000000;stroke-opacity:0;" x="261.692308" xlink:href="#ma1df9dd9cb" y="203.166058"/>
     <use style="fill:#1f77b4;fill-opacity:0.75;stroke:#000000;stroke-opacity:0;" x="264.994083" xlink:href="#ma1df9dd9cb" y="261.600926"/>
     <use style="fill:#1f77b4;fill-opacity:0.75;stroke:#000000;stroke-opacity:0;" x="268.295858" xlink:href="#ma1df9dd9cb" y="302.101925"/>
     <use style="fill:#1f77b4;fill-opacity:0.75;stroke:#000000;stroke-opacity:0;" x="271.597633" xlink:href="#ma1df9dd9cb" y="337.608335"/>
     <use style="fill:#1f77b4;fill-opacity:0.75;stroke:#000000;stroke-opacity:0;" x="274.899408" xlink:href="#ma1df9dd9cb" y="348.388781"/>
     <use style="fill:#1f77b4;fill-opacity:0.75;stroke:#000000;stroke-opacity:0;" x="278.201183" xlink:href="#ma1df9dd9cb" y="323.420407"/>
     <use style="fill:#1f77b4;fill-opacity:0.75;stroke:#000000;stroke-opacity:0;" x="281.502959" xlink:href="#ma1df9dd9cb" y="326.873626"/>
     <use style="fill:#1f77b4;fill-opacity:0.75;stroke:#000000;stroke-opacity:0;" x="284.804734" xlink:href="#ma1df9dd9cb" y="293.311082"/>
     <use style="fill:#1f77b4;fill-opacity:0.75;stroke:#000000;stroke-opacity:0;" x="288.106509" xlink:href="#ma1df9dd9cb" y="284.735207"/>
     <use style="fill:#1f77b4;fill-opacity:0.75;stroke:#000000;stroke-opacity:0;" x="291.408284" xlink:href="#ma1df9dd9cb" y="284.867847"/>
     <use style="fill:#1f77b4;fill-opacity:0.75;stroke:#000000;stroke-opacity:0;" x="294.710059" xlink:href="#ma1df9dd9cb" y="313.600459"/>
     <use style="fill:#1f77b4;fill-opacity:0.75;stroke:#000000;stroke-opacity:0;" x="298.011834" xlink:href="#ma1df9dd9cb" y="358.249894"/>
     <use style="fill:#1f77b4;fill-opacity:0.75;stroke:#000000;stroke-opacity:0;" x="301.313609" xlink:href="#ma1df9dd9cb" y="360.95301"/>
     <use style="fill:#1f77b4;fill-opacity:0.75;stroke:#000000;stroke-opacity:0;" x="304.615385" xlink:href="#ma1df9dd9cb" y="375.849877"/>
     <use style="fill:#1f77b4;fill-opacity:0.75;stroke:#000000;stroke-opacity:0;" x="307.91716" xlink:href="#ma1df9dd9cb" y="396.916799"/>
     <use style="fill:#1f77b4;fill-opacity:0.75;stroke:#000000;stroke-opacity:0;" x="311.218935" xlink:href="#ma1df9dd9cb" y="413.812417"/>
     <use style="fill:#1f77b4;fill-opacity:0.75;stroke:#000000;stroke-opacity:0;" x="314.52071" xlink:href="#ma1df9dd9cb" y="395.645283"/>
     <use style="fill:#1f77b4;fill-opacity:0.75;stroke:#000000;stroke-opacity:0;" x="317.822485" xlink:href="#ma1df9dd9cb" y="360.298957"/>
     <use style="fill:#1f77b4;fill-opacity:0.75;stroke:#000000;stroke-opacity:0;" x="321.12426" xlink:href="#ma1df9dd9cb" y="324.586726"/>
     <use style="fill:#1f77b4;fill-opacity:0.75;stroke:#000000;stroke-opacity:0;" x="324.426036" xlink:href="#ma1df9dd9cb" y="350.639091"/>
     <use style="fill:#1f77b4;fill-opacity:0.75;stroke:#000000;stroke-opacity:0;" x="327.727811" xlink:href="#ma1df9dd9cb" y="348.356765"/>
     <use style="fill:#1f77b4;fill-opacity:0.75;stroke:#000000;stroke-opacity:0;" x="331.029586" xlink:href="#ma1df9dd9cb" y="322.981322"/>
     <use style="fill:#1f77b4;fill-opacity:0.75;stroke:#000000;stroke-opacity:0;" x="334.331361" xlink:href="#ma1df9dd9cb" y="309.625826"/>
     <use style="fill:#1f77b4;fill-opacity:0.75;stroke:#000000;stroke-opacity:0;" x="337.633136" xlink:href="#ma1df9dd9cb" y="318.846607"/>
     <use style="fill:#1f77b4;fill-opacity:0.75;stroke:#000000;stroke-opacity:0;" x="340.934911" xlink:href="#ma1df9dd9cb" y="349.861545"/>
     <use style="fill:#1f77b4;fill-opacity:0.75;stroke:#000000;stroke-opacity:0;" x="344.236686" xlink:href="#ma1df9dd9cb" y="350.767157"/>
     <use style="fill:#1f77b4;fill-opacity:0.75;stroke:#000000;stroke-opacity:0;" x="347.538462" xlink:href="#ma1df9dd9cb" y="342.328496"/>
     <use style="fill:#1f77b4;fill-opacity:0.75;stroke:#000000;stroke-opacity:0;" x="350.840237" xlink:href="#ma1df9dd9cb" y="349.596265"/>
     <use style="fill:#1f77b4;fill-opacity:0.75;stroke:#000000;stroke-opacity:0;" x="354.142012" xlink:href="#ma1df9dd9cb" y="372.108508"/>
     <use style="fill:#1f77b4;fill-opacity:0.75;stroke:#000000;stroke-opacity:0;" x="357.443787" xlink:href="#ma1df9dd9cb" y="379.774197"/>
     <use style="fill:#1f77b4;fill-opacity:0.75;stroke:#000000;stroke-opacity:0;" x="360.745562" xlink:href="#ma1df9dd9cb" y="378.013284"/>
     <use style="fill:#1f77b4;fill-opacity:0.75;stroke:#000000;stroke-opacity:0;" x="364.047337" xlink:href="#ma1df9dd9cb" y="363.04781"/>
     <use style="fill:#1f77b4;fill-opacity:0.75;stroke:#000000;stroke-opacity:0;" x="367.349112" xlink:href="#ma1df9dd9cb" y="324.243691"/>
     <use style="fill:#1f77b4;fill-opacity:0.75;stroke:#000000;stroke-opacity:0;" x="370.650888" xlink:href="#ma1df9dd9cb" y="293.832495"/>
     <use style="fill:#1f77b4;fill-opacity:0.75;stroke:#000000;stroke-opacity:0;" x="373.952663" xlink:href="#ma1df9dd9cb" y="289.807551"/>
     <use style="fill:#1f77b4;fill-opacity:0.75;stroke:#000000;stroke-opacity:0;" x="377.254438" xlink:href="#ma1df9dd9cb" y="286.907762"/>
     <use style="fill:#1f77b4;fill-opacity:0.75;stroke:#000000;stroke-opacity:0;" x="380.556213" xlink:href="#ma1df9dd9cb" y="305.669489"/>
     <use style="fill:#1f77b4;fill-opacity:0.75;stroke:#000000;stroke-opacity:0;" x="383.857988" xlink:href="#ma1df9dd9cb" y="336.602099"/>
     <use style="fill:#1f77b4;fill-opacity:0.75;stroke:#000000;stroke-opacity:0;" x="387.159763" xlink:href="#ma1df9dd9cb" y="342.264463"/>
     <use style="fill:#1f77b4;fill-opacity:0.75;stroke:#000000;stroke-opacity:0;" x="390.461538" xlink:href="#ma1df9dd9cb" y="366.093961"/>
     <use style="fill:#1f77b4;fill-opacity:0.75;stroke:#000000;stroke-opacity:0;" x="393.763314" xlink:href="#ma1df9dd9cb" y="336.853658"/>
     <use style="fill:#1f77b4;fill-opacity:0.75;stroke:#000000;stroke-opacity:0;" x="397.065089" xlink:href="#ma1df9dd9cb" y="338.664883"/>
     <use style="fill:#1f77b4;fill-opacity:0.75;stroke:#000000;stroke-opacity:0;" x="400.366864" xlink:href="#ma1df9dd9cb" y="320.776751"/>
     <use style="fill:#1f77b4;fill-opacity:0.75;stroke:#000000;stroke-opacity:0;" x="403.668639" xlink:href="#ma1df9dd9cb" y="305.367619"/>
     <use style="fill:#1f77b4;fill-opacity:0.75;stroke:#000000;stroke-opacity:0;" x="406.970414" xlink:href="#ma1df9dd9cb" y="316.934759"/>
     <use style="fill:#1f77b4;fill-opacity:0.75;stroke:#000000;stroke-opacity:0;" x="410.272189" xlink:href="#ma1df9dd9cb" y="343.696063"/>
     <use style="fill:#1f77b4;fill-opacity:0.75;stroke:#000000;stroke-opacity:0;" x="413.573964" xlink:href="#ma1df9dd9cb" y="350.140547"/>
     <use style="fill:#1f77b4;fill-opacity:0.75;stroke:#000000;stroke-opacity:0;" x="416.87574" xlink:href="#ma1df9dd9cb" y="331.689838"/>
     <use style="fill:#1f77b4;fill-opacity:0.75;stroke:#000000;stroke-opacity:0;" x="420.177515" xlink:href="#ma1df9dd9cb" y="324.696497"/>
     <use style="fill:#1f77b4;fill-opacity:0.75;stroke:#000000;stroke-opacity:0;" x="423.47929" xlink:href="#ma1df9dd9cb" y="320.122697"/>
     <use style="fill:#1f77b4;fill-opacity:0.75;stroke:#000000;stroke-opacity:0;" x="426.781065" xlink:href="#ma1df9dd9cb" y="292.785095"/>
     <use style="fill:#1f77b4;fill-opacity:0.75;stroke:#000000;stroke-opacity:0;" x="430.08284" xlink:href="#ma1df9dd9cb" y="289.885306"/>
     <use style="fill:#1f77b4;fill-opacity:0.75;stroke:#000000;stroke-opacity:0;" x="433.384615" xlink:href="#ma1df9dd9cb" y="290.909837"/>
     <use style="fill:#1f77b4;fill-opacity:0.75;stroke:#000000;stroke-opacity:0;" x="436.686391" xlink:href="#ma1df9dd9cb" y="307.430402"/>
     <use style="fill:#1f77b4;fill-opacity:0.75;stroke:#000000;stroke-opacity:0;" x="439.988166" xlink:href="#ma1df9dd9cb" y="338.468209"/>
     <use style="fill:#1f77b4;fill-opacity:0.75;stroke:#000000;stroke-opacity:0;" x="443.289941" xlink:href="#ma1df9dd9cb" y="345.790863"/>
     <use style="fill:#1f77b4;fill-opacity:0.75;stroke:#000000;stroke-opacity:0;" x="446.591716" xlink:href="#ma1df9dd9cb" y="372.886054"/>
     <use style="fill:#1f77b4;fill-opacity:0.75;stroke:#000000;stroke-opacity:0;" x="449.893491" xlink:href="#ma1df9dd9cb" y="339.414986"/>
     <use style="fill:#1f77b4;fill-opacity:0.75;stroke:#000000;stroke-opacity:0;" x="453.195266" xlink:href="#ma1df9dd9cb" y="340.302303"/>
     <use style="fill:#1f77b4;fill-opacity:0.75;stroke:#000000;stroke-opacity:0;" x="456.497041" xlink:href="#ma1df9dd9cb" y="321.005441"/>
     <use style="fill:#1f77b4;fill-opacity:0.75;stroke:#000000;stroke-opacity:0;" x="459.798817" xlink:href="#ma1df9dd9cb" y="304.603794"/>
     <use style="fill:#1f77b4;fill-opacity:0.75;stroke:#000000;stroke-opacity:0;" x="463.100592" xlink:href="#ma1df9dd9cb" y="316.660331"/>
     <use style="fill:#1f77b4;fill-opacity:0.75;stroke:#000000;stroke-opacity:0;" x="466.402367" xlink:href="#ma1df9dd9cb" y="343.549701"/>
     <use style="fill:#1f77b4;fill-opacity:0.75;stroke:#000000;stroke-opacity:0;" x="469.704142" xlink:href="#ma1df9dd9cb" y="349.202918"/>
     <use style="fill:#1f77b4;fill-opacity:0.75;stroke:#000000;stroke-opacity:0;" x="473.005917" xlink:href="#ma1df9dd9cb" y="331.511459"/>
     <use style="fill:#1f77b4;fill-opacity:0.75;stroke:#000000;stroke-opacity:0;" x="476.307692" xlink:href="#ma1df9dd9cb" y="335.20709"/>
     <use style="fill:#1f77b4;fill-opacity:0.75;stroke:#000000;stroke-opacity:0;" x="479.609467" xlink:href="#ma1df9dd9cb" y="340.082761"/>
     <use style="fill:#1f77b4;fill-opacity:0.75;stroke:#000000;stroke-opacity:0;" x="482.911243" xlink:href="#ma1df9dd9cb" y="328.433292"/>
     <use style="fill:#1f77b4;fill-opacity:0.75;stroke:#000000;stroke-opacity:0;" x="486.213018" xlink:href="#ma1df9dd9cb" y="368.792503"/>
     <use style="fill:#1f77b4;fill-opacity:0.75;stroke:#000000;stroke-opacity:0;" x="489.514793" xlink:href="#ma1df9dd9cb" y="333.592538"/>
     <use style="fill:#1f77b4;fill-opacity:0.75;stroke:#000000;stroke-opacity:0;" x="492.816568" xlink:href="#ma1df9dd9cb" y="340.197106"/>
     <use style="fill:#1f77b4;fill-opacity:0.75;stroke:#000000;stroke-opacity:0;" x="496.118343" xlink:href="#ma1df9dd9cb" y="380.368791"/>
     <use style="fill:#1f77b4;fill-opacity:0.75;stroke:#000000;stroke-opacity:0;" x="499.420118" xlink:href="#ma1df9dd9cb" y="360.198333"/>
     <use style="fill:#1f77b4;fill-opacity:0.75;stroke:#000000;stroke-opacity:0;" x="502.721893" xlink:href="#ma1df9dd9cb" y="380.16297"/>
     <use style="fill:#1f77b4;fill-opacity:0.75;stroke:#000000;stroke-opacity:0;" x="506.023669" xlink:href="#ma1df9dd9cb" y="343.654898"/>
     <use style="fill:#1f77b4;fill-opacity:0.75;stroke:#000000;stroke-opacity:0;" x="509.325444" xlink:href="#ma1df9dd9cb" y="340.17881"/>
     <use style="fill:#1f77b4;fill-opacity:0.75;stroke:#000000;stroke-opacity:0;" x="512.627219" xlink:href="#ma1df9dd9cb" y="319.916876"/>
     <use style="fill:#1f77b4;fill-opacity:0.75;stroke:#000000;stroke-opacity:0;" x="515.928994" xlink:href="#ma1df9dd9cb" y="303.707329"/>
     <use style="fill:#1f77b4;fill-opacity:0.75;stroke:#000000;stroke-opacity:0;" x="519.230769" xlink:href="#ma1df9dd9cb" y="315.727276"/>
     <use style="fill:#1f77b4;fill-opacity:0.75;stroke:#000000;stroke-opacity:0;" x="522.532544" xlink:href="#ma1df9dd9cb" y="343.174649"/>
     <use style="fill:#1f77b4;fill-opacity:0.75;stroke:#000000;stroke-opacity:0;" x="525.83432" xlink:href="#ma1df9dd9cb" y="349.184623"/>
     <use style="fill:#1f77b4;fill-opacity:0.75;stroke:#000000;stroke-opacity:0;" x="529.136095" xlink:href="#ma1df9dd9cb" y="337.000019"/>
     <use style="fill:#1f77b4;fill-opacity:0.75;stroke:#000000;stroke-opacity:0;" x="532.43787" xlink:href="#ma1df9dd9cb" y="343.060304"/>
     <use style="fill:#1f77b4;fill-opacity:0.75;stroke:#000000;stroke-opacity:0;" x="535.739645" xlink:href="#ma1df9dd9cb" y="357.344282"/>
     <use style="fill:#1f77b4;fill-opacity:0.75;stroke:#000000;stroke-opacity:0;" x="539.04142" xlink:href="#ma1df9dd9cb" y="361.703113"/>
     <use style="fill:#1f77b4;fill-opacity:0.75;stroke:#000000;stroke-opacity:0;" x="542.343195" xlink:href="#ma1df9dd9cb" y="354.87443"/>
     <use style="fill:#1f77b4;fill-opacity:0.75;stroke:#000000;stroke-opacity:0;" x="545.64497" xlink:href="#ma1df9dd9cb" y="321.668642"/>
     <use style="fill:#1f77b4;fill-opacity:0.75;stroke:#000000;stroke-opacity:0;" x="548.946746" xlink:href="#ma1df9dd9cb" y="292.5747"/>
     <use style="fill:#1f77b4;fill-opacity:0.75;stroke:#000000;stroke-opacity:0;" x="552.248521" xlink:href="#ma1df9dd9cb" y="282.173879"/>
     <use style="fill:#1f77b4;fill-opacity:0.75;stroke:#000000;stroke-opacity:0;" x="555.550296" xlink:href="#ma1df9dd9cb" y="273.163493"/>
     <use style="fill:#1f77b4;fill-opacity:0.75;stroke:#000000;stroke-opacity:0;" x="558.852071" xlink:href="#ma1df9dd9cb" y="273.108607"/>
     <use style="fill:#1f77b4;fill-opacity:0.75;stroke:#000000;stroke-opacity:0;" x="562.153846" xlink:href="#ma1df9dd9cb" y="282.183026"/>
     <use style="fill:#1f77b4;fill-opacity:0.75;stroke:#000000;stroke-opacity:0;" x="565.455621" xlink:href="#ma1df9dd9cb" y="291.573038"/>
     <use style="fill:#1f77b4;fill-opacity:0.75;stroke:#000000;stroke-opacity:0;" x="568.757396" xlink:href="#ma1df9dd9cb" y="319.19879"/>
     <use style="fill:#1f77b4;fill-opacity:0.75;stroke:#000000;stroke-opacity:0;" x="572.059172" xlink:href="#ma1df9dd9cb" y="353.977965"/>
     <use style="fill:#1f77b4;fill-opacity:0.75;stroke:#000000;stroke-opacity:0;" x="575.360947" xlink:href="#ma1df9dd9cb" y="329.233707"/>
     <use style="fill:#1f77b4;fill-opacity:0.75;stroke:#000000;stroke-opacity:0;" x="578.662722" xlink:href="#ma1df9dd9cb" y="336.803346"/>
     <use style="fill:#1f77b4;fill-opacity:0.75;stroke:#000000;stroke-opacity:0;" x="581.964497" xlink:href="#ma1df9dd9cb" y="311.528527"/>
     <use style="fill:#1f77b4;fill-opacity:0.75;stroke:#000000;stroke-opacity:0;" x="585.266272" xlink:href="#ma1df9dd9cb" y="292.661602"/>
     <use style="fill:#1f77b4;fill-opacity:0.75;stroke:#000000;stroke-opacity:0;" x="588.568047" xlink:href="#ma1df9dd9cb" y="292.666176"/>
     <use style="fill:#1f77b4;fill-opacity:0.75;stroke:#000000;stroke-opacity:0;" x="591.869822" xlink:href="#ma1df9dd9cb" y="298.456607"/>
     <use style="fill:#1f77b4;fill-opacity:0.75;stroke:#000000;stroke-opacity:0;" x="595.171598" xlink:href="#ma1df9dd9cb" y="331.785887"/>
     <use style="fill:#1f77b4;fill-opacity:0.75;stroke:#000000;stroke-opacity:0;" x="598.473373" xlink:href="#ma1df9dd9cb" y="323.649097"/>
     <use style="fill:#1f77b4;fill-opacity:0.75;stroke:#000000;stroke-opacity:0;" x="601.775148" xlink:href="#ma1df9dd9cb" y="338.321848"/>
     <use style="fill:#1f77b4;fill-opacity:0.75;stroke:#000000;stroke-opacity:0;" x="605.076923" xlink:href="#ma1df9dd9cb" y="369.396245"/>
     <use style="fill:#1f77b4;fill-opacity:0.75;stroke:#000000;stroke-opacity:0;" x="608.378698" xlink:href="#ma1df9dd9cb" y="334.452413"/>
     <use style="fill:#1f77b4;fill-opacity:0.75;stroke:#000000;stroke-opacity:0;" x="611.680473" xlink:href="#ma1df9dd9cb" y="339.831202"/>
     <use style="fill:#1f77b4;fill-opacity:0.75;stroke:#000000;stroke-opacity:0;" x="614.982249" xlink:href="#ma1df9dd9cb" y="320.104402"/>
     <use style="fill:#1f77b4;fill-opacity:0.75;stroke:#000000;stroke-opacity:0;" x="618.284024" xlink:href="#ma1df9dd9cb" y="299.526876"/>
     <use style="fill:#1f77b4;fill-opacity:0.75;stroke:#000000;stroke-opacity:0;" x="621.585799" xlink:href="#ma1df9dd9cb" y="310.307323"/>
     <use style="fill:#1f77b4;fill-opacity:0.75;stroke:#000000;stroke-opacity:0;" x="624.887574" xlink:href="#ma1df9dd9cb" y="331.964266"/>
     <use style="fill:#1f77b4;fill-opacity:0.75;stroke:#000000;stroke-opacity:0;" x="628.189349" xlink:href="#ma1df9dd9cb" y="323.402112"/>
     <use style="fill:#1f77b4;fill-opacity:0.75;stroke:#000000;stroke-opacity:0;" x="631.491124" xlink:href="#ma1df9dd9cb" y="334.790874"/>
     <use style="fill:#1f77b4;fill-opacity:0.75;stroke:#000000;stroke-opacity:0;" x="634.792899" xlink:href="#ma1df9dd9cb" y="307.960963"/>
     <use style="fill:#1f77b4;fill-opacity:0.75;stroke:#000000;stroke-opacity:0;" x="638.094675" xlink:href="#ma1df9dd9cb" y="299.078644"/>
     <use style="fill:#1f77b4;fill-opacity:0.75;stroke:#000000;stroke-opacity:0;" x="641.39645" xlink:href="#ma1df9dd9cb" y="309.612105"/>
    </g>
   </g>
   <g id="patch_3">
    <path d="M 90 422.928 
L 90 57.024 
" style="fill:none;stroke:#737373;stroke-linecap:square;stroke-linejoin:miter;stroke-width:0.8;"/>
   </g>
   <g id="patch_4">
    <path d="M 648 422.928 
L 648 57.024 
" style="fill:none;stroke:#737373;stroke-linecap:square;stroke-linejoin:miter;stroke-width:0.8;"/>
   </g>
   <g id="patch_5">
    <path d="M 90 422.928 
L 648 422.928 
" style="fill:none;stroke:#737373;stroke-linecap:square;stroke-linejoin:miter;stroke-width:0.8;"/>
   </g>
   <g id="patch_6">
    <path d="M 90 57.024 
L 648 57.024 
" style="fill:none;stroke:#737373;stroke-linecap:square;stroke-linejoin:miter;stroke-width:0.8;"/>
   </g>
   <g id="label_1">
    <!-- M1 -->
    <defs>
     <path d="M 9.8125 72.90625 
L 24.515625 72.90625 
L 43.109375 23.296875 
L 61.8125 72.90625 
L 76.515625 72.90625 
L 76.515625 0 
L 66.890625 0 
L 66.890625 64.015625 
L 48.09375 14.015625 
L 38.1875 14.015625 
L 19.390625 64.015625 
L 19.390625 0 
L 9.8125 0 
z
" id="DejaVuSans-4d"/>
    </defs>
    <g style="fill:#737373;opacity:0.5;" transform="translate(97.60355 80.727094)scale(0.0833 -0.0833)">
     <use xlink:href="#DejaVuSans-4d"/>
     <use x="86.279297" xlink:href="#DejaVuSans-31"/>
    </g>
   </g>
   <g id="label_9">
    <!-- A9 -->
    <g style="fill:#737373;opacity:0.5;" transform="translate(124.017751 57.153729)scale(0.0833 -0.0833)">
     <use xlink:href="#DejaVuSans-41"/>
     <use x="68.408203" xlink:href="#DejaVuSans-39"/>
    </g>
   </g>
   <g id="label_11">
    <!-- L11 -->
    <g style="fill:#737373;opacity:0.5;" transform="translate(130.621302 65.930851)scale(0.0833 -0.0833)">
     <use xlink:href="#DejaVuSans-4c"/>
     <use x="55.712891" xlink:href="#DejaVuSans-31"/>
     <use x="119.335938" xlink:href="#DejaVuSans-31"/>
    </g>
   </g>
   <g id="label_12">
    <!-- A12 -->
    <g style="fill:#737373;opacity:0.5;" transform="translate(133.923077 121.040567)scale(0.0833 -0.0833)">
     <use xlink:href="#DejaVuSans-41"/>
     <use x="68.408203" xlink:href="#DejaVuSans-31"/>
     <use x="132.03125" xlink:href="#DejaVuSans-32"/>
    </g>
   </g>
   <g id="label_13">
    <!-- F13 -->
    <defs>
     <path d="M 9.8125 72.90625 
L 51.703125 72.90625 
L 51.703125 64.59375 
L 19.671875 64.59375 
L 19.671875 43.109375 
L 48.578125 43.109375 
L 48.578125 34.8125 
L 19.671875 34.8125 
L 19.671875 0 
L 9.8125 0 
z
" id="DejaVuSans-46"/>
    </defs>
    <g style="fill:#737373;opacity:0.5;" transform="translate(137.224852 120.185266)scale(0.0833 -0.0833)">
     <use xlink:href="#DejaVuSans-46"/>
     <use x="57.519531" xlink:href="#DejaVuSans-31"/>
     <use x="121.142578" xlink:href="#DejaVuSans-33"/>
    </g>
   </g>
   <g id="label_14">
    <!-- S14 -->
    <g style="fill:#737373;opacity:0.5;" transform="translate(140.526627 186.674597)scale(0.0833 -0.0833)">
     <use xlink:href="#DejaVuSans-53"/>
     <use x="63.476562" xlink:href="#DejaVuSans-31"/>
     <use x="127.099609" xlink:href="#DejaVuSans-34"/>
    </g>
   </g>
   <g id="label_15">
    <!-- S15 -->
    <g style="fill:#737373;opacity:0.5;" transform="translate(143.828402 231.301164)scale(0.0833 -0.0833)">
     <use xlink:href="#DejaVuSans-53"/>
     <use x="63.476562" xlink:href="#DejaVuSans-31"/>
     <use x="127.099609" xlink:href="#DejaVuSans-35"/>
    </g>
   </g>
   <g id="label_28">
    <!-- V28 -->
    <defs>
     <path d="M 28.609375 0 
L 0.78125 72.90625 
L 11.078125 72.90625 
L 34.1875 11.53125 
L 57.328125 72.90625 
L 67.578125 72.90625 
L 39.796875 0 
z
" id="DejaVuSans-56"/>
    </defs>
    <g style="fill:#737373;opacity:0.5;" transform="translate(186.751479 200.149012)scale(0.0833 -0.0833)">
     <use xlink:href="#DejaVuSans-56"/>
     <use x="68.408203" xlink:href="#DejaVuSans-32"/>
     <use x="132.03125" xlink:href="#DejaVuSans-38"/>
    </g>
   </g>
   <g id="label_29">
    <!-- P29 -->
    <g style="fill:#737373;opacity:0.5;" transform="translate(190.053254 174.828455)scale(0.0833 -0.0833)">
     <use xlink:href="#DejaVuSans-50"/>
     <use x="60.302734" xlink:href="#DejaVuSans-32"/>
     <use x="123.925781" xlink:href="#DejaVuSans-39"/>
    </g>
   </g>
   <g id="label_30">
    <!-- L30 -->
    <g style="fill:#737373;opacity:0.5;" transform="translate(193.35503 96.474687)scale(0.0833 -0.0833)">
     <use xlink:href="#DejaVuSans-4c"/>
     <use x="55.712891" xlink:href="#DejaVuSans-33"/>
     <use x="119.335938" xlink:href="#DejaVuSans-30"/>
    </g>
   </g>
   <g id="label_31">
    <!-- V31 -->
    <g style="fill:#737373;opacity:0.5;" transform="translate(196.656805 83.187798)scale(0.0833 -0.0833)">
     <use xlink:href="#DejaVuSans-56"/>
     <use x="68.408203" xlink:href="#DejaVuSans-33"/>
     <use x="132.03125" xlink:href="#DejaVuSans-31"/>
    </g>
   </g>
   <g id="label_32">
    <!-- I32 -->
    <g style="fill:#737373;opacity:0.5;" transform="translate(199.95858 122.243476)scale(0.0833 -0.0833)">
     <use xlink:href="#DejaVuSans-49"/>
     <use x="29.492188" xlink:href="#DejaVuSans-33"/>
     <use x="93.115234" xlink:href="#DejaVuSans-32"/>
    </g>
   </g>
   <g id="label_33">
    <!-- S33 -->
    <g style="fill:#737373;opacity:0.5;" transform="translate(203.260355 214.725712)scale(0.0833 -0.0833)">
     <use xlink:href="#DejaVuSans-53"/>
     <use x="63.476562" xlink:href="#DejaVuSans-33"/>
     <use x="127.099609" xlink:href="#DejaVuSans-33"/>
    </g>
   </g>
   <g id="label_41">
    <!-- F41 -->
    <g style="fill:#737373;opacity:0.5;" transform="translate(229.674556 196.567726)scale(0.0833 -0.0833)">
     <use xlink:href="#DejaVuSans-46"/>
     <use x="57.519531" xlink:href="#DejaVuSans-34"/>
     <use x="121.142578" xlink:href="#DejaVuSans-31"/>
    </g>
   </g>
   <g id="label_42">
    <!-- I42 -->
    <g style="fill:#737373;opacity:0.5;" transform="translate(232.976331 210.284553)scale(0.0833 -0.0833)">
     <use xlink:href="#DejaVuSans-49"/>
     <use x="29.492188" xlink:href="#DejaVuSans-34"/>
     <use x="93.115234" xlink:href="#DejaVuSans-32"/>
    </g>
   </g>
   <g id="label_51">
    <!-- L51 -->
    <g style="fill:#737373;opacity:0.5;" transform="translate(262.692308 202.166058)scale(0.0833 -0.0833)">
     <use xlink:href="#DejaVuSans-4c"/>
     <use x="55.712891" xlink:href="#DejaVuSans-35"/>
     <use x="119.335938" xlink:href="#DejaVuSans-31"/>
    </g>
   </g>
   <g id="text_29">
    <!-- A3D profile | chain A -->
    <defs>
     <path id="DejaVuSans-20"/>
     <path d="M 18.109375 8.203125 
L 18.109375 -20.796875 
L 9.078125 -20.796875 
L 9.078125 54.6875 
L 18.109375 54.6875 
L 18.109375 46.390625 
Q 20.953125 51.265625 25.265625 53.625 
Q 29.59375 56 35.59375 56 
Q 45.5625 56 51.78125 48.09375 
Q 58.015625 40.1875 58.015625 27.296875 
Q 58.015625 14.40625 51.78125 6.484375 
Q 45.5625 -1.421875 35.59375 -1.421875 
Q 29.59375 -1.421875 25.265625 0.953125 
Q 20.953125 3.328125 18.109375 8.203125 
z
M 48.6875 27.296875 
Q 48.6875 37.203125 44.609375 42.84375 
Q 40.53125 48.484375 33.40625 48.484375 
Q 26.265625 48.484375 22.1875 42.84375 
Q 18.109375 37.203125 18.109375 27.296875 
Q 18.109375 17.390625 22.1875 11.75 
Q 26.265625 6.109375 33.40625 6.109375 
Q 40.53125 6.109375 44.609375 11.75 
Q 48.6875 17.390625 48.6875 27.296875 
z
" id="DejaVuSans-70"/>
     <path d="M 37.109375 75.984375 
L 37.109375 68.5 
L 28.515625 68.5 
Q 23.6875 68.5 21.796875 66.546875 
Q 19.921875 64.59375 19.921875 59.515625 
L 19.921875 54.6875 
L 34.71875 54.6875 
L 34.71875 47.703125 
L 19.921875 47.703125 
L 19.921875 0 
L 10.890625 0 
L 10.890625 47.703125 
L 2.296875 47.703125 
L 2.296875 54.6875 
L 10.890625 54.6875 
L 10.890625 58.5 
Q 10.890625 67.625 15.140625 71.796875 
Q 19.390625 75.984375 28.609375 75.984375 
z
" id="DejaVuSans-66"/>
     <path d="M 9.421875 75.984375 
L 18.40625 75.984375 
L 18.40625 0 
L 9.421875 0 
z
" id="DejaVuSans-6c"/>
     <path d="M 21 76.421875 
L 21 -23.578125 
L 12.703125 -23.578125 
L 12.703125 76.421875 
z
" id="DejaVuSans-7c"/>
     <path d="M 54.890625 33.015625 
L 54.890625 0 
L 45.90625 0 
L 45.90625 32.71875 
Q 45.90625 40.484375 42.875 44.328125 
Q 39.84375 48.1875 33.796875 48.1875 
Q 26.515625 48.1875 22.3125 43.546875 
Q 18.109375 38.921875 18.109375 30.90625 
L 18.109375 0 
L 9.078125 0 
L 9.078125 75.984375 
L 18.109375 75.984375 
L 18.109375 46.1875 
Q 21.34375 51.125 25.703125 53.5625 
Q 30.078125 56 35.796875 56 
Q 45.21875 56 50.046875 50.171875 
Q 54.890625 44.34375 54.890625 33.015625 
z
" id="DejaVuSans-68"/>
     <path d="M 34.28125 27.484375 
Q 23.390625 27.484375 19.1875 25 
Q 14.984375 22.515625 14.984375 16.5 
Q 14.984375 11.71875 18.140625 8.90625 
Q 21.296875 6.109375 26.703125 6.109375 
Q 34.1875 6.109375 38.703125 11.40625 
Q 43.21875 16.703125 43.21875 25.484375 
L 43.21875 27.484375 
z
M 52.203125 31.203125 
L 52.203125 0 
L 43.21875 0 
L 43.21875 8.296875 
Q 40.140625 3.328125 35.546875 0.953125 
Q 30.953125 -1.421875 24.3125 -1.421875 
Q 15.921875 -1.421875 10.953125 3.296875 
Q 6 8.015625 6 15.921875 
Q 6 25.140625 12.171875 29.828125 
Q 18.359375 34.515625 30.609375 34.515625 
L 43.21875 34.515625 
L 43.21875 35.40625 
Q 43.21875 41.609375 39.140625 45 
Q 35.0625 48.390625 27.6875 48.390625 
Q 23 48.390625 18.546875 47.265625 
Q 14.109375 46.140625 10.015625 43.890625 
L 10.015625 52.203125 
Q 14.9375 54.109375 19.578125 55.046875 
Q 24.21875 56 28.609375 56 
Q 40.484375 56 46.34375 49.84375 
Q 52.203125 43.703125 52.203125 31.203125 
z
" id="DejaVuSans-61"/>
     <path d="M 54.890625 33.015625 
L 54.890625 0 
L 45.90625 0 
L 45.90625 32.71875 
Q 45.90625 40.484375 42.875 44.328125 
Q 39.84375 48.1875 33.796875 48.1875 
Q 26.515625 48.1875 22.3125 43.546875 
Q 18.109375 38.921875 18.109375 30.90625 
L 18.109375 0 
L 9.078125 0 
L 9.078125 54.6875 
L 18.109375 54.6875 
L 18.109375 46.1875 
Q 21.34375 51.125 25.703125 53.5625 
Q 30.078125 56 35.796875 56 
Q 45.21875 56 50.046875 50.171875 
Q 54.890625 44.34375 54.890625 33.015625 
z
" id="DejaVuSans-6e"/>
    </defs>
    <g style="fill:#737373;" transform="translate(307.374375 51.024)scale(0.12 -0.12)">
     <use xlink:href="#DejaVuSans-41"/>
     <use x="68.408203" xlink:href="#DejaVuSans-33"/>
     <use x="132.03125" xlink:href="#DejaVuSans-44"/>
     <use x="209.033203" xlink:href="#DejaVuSans-20"/>
     <use x="240.820312" xlink:href="#DejaVuSans-70"/>
     <use x="304.296875" xlink:href="#DejaVuSans-72"/>
     <use x="345.378906" xlink:href="#DejaVuSans-6f"/>
     <use x="406.560547" xlink:href="#DejaVuSans-66"/>
     <use x="441.765625" xlink:href="#DejaVuSans-69"/>
     <use x="469.548828" xlink:href="#DejaVuSans-6c"/>
     <use x="497.332031" xlink:href="#DejaVuSans-65"/>
     <use x="558.855469" xlink:href="#DejaVuSans-20"/>
     <use x="590.642578" xlink:href="#DejaVuSans-7c"/>
     <use x="624.333984" xlink:href="#DejaVuSans-20"/>
     <use x="656.121094" xlink:href="#DejaVuSans-63"/>
     <use x="711.101562" xlink:href="#DejaVuSans-68"/>
     <use x="774.480469" xlink:href="#DejaVuSans-61"/>
     <use x="835.759766" xlink:href="#DejaVuSans-69"/>
     <use x="863.542969" xlink:href="#DejaVuSans-6e"/>
     <use x="926.921875" xlink:href="#DejaVuSans-20"/>
     <use x="958.708984" xlink:href="#DejaVuSans-41"/>
    </g>
   </g>
  </g>
 </g>
 <defs>
  <clipPath id="pcfc91ebeac">
   <rect height="365.904" width="558" x="90" y="57.024"/>
  </clipPath>
 </defs>
</svg>
